<svg xmlns="http://www.w3.org/2000/svg" width="190.92" height="156.647" viewBox="0 0 190.92 156.647">
  <g id="welcome" transform="translate(-145.508 -59.4)">
    <g id="background" transform="translate(145.508 59.4)">
      <g id="details" transform="translate(0 0)">
        <circle id="Elipse_258" data-name="Elipse 258" cx="2.427" cy="2.427" r="2.427" transform="translate(129.699 30.609)" fill="#ec615b"/>
        <circle id="Elipse_259" data-name="Elipse 259" cx="1.131" cy="1.131" r="1.131" transform="translate(133.57 26.47)" fill="#ec615b"/>
        <circle id="Elipse_260" data-name="Elipse 260" cx="1.161" cy="1.161" r="1.161" transform="translate(59.355 11.687)" fill="#ec615b"/>
        <circle id="Elipse_261" data-name="Elipse 261" cx="1.965" cy="1.965" r="1.965" transform="translate(134.538 145.987)" fill="#ec615b"/>
        <circle id="Elipse_262" data-name="Elipse 262" cx="0.908" cy="0.908" r="0.908" transform="translate(46.165 154.831)" fill="#ec615b"/>
        <circle id="Elipse_263" data-name="Elipse 263" cx="0.938" cy="0.938" r="0.938" transform="translate(57.48 87.688)" fill="#ec615b"/>
        <circle id="Elipse_264" data-name="Elipse 264" cx="0.908" cy="0.908" r="0.908" transform="translate(59.355 92.526)" fill="#5222d0"/>
        <circle id="Elipse_265" data-name="Elipse 265" cx="1.697" cy="1.697" r="1.697" transform="translate(57.48 116.257)" fill="#5222d0"/>
        <circle id="Elipse_266" data-name="Elipse 266" cx="1.072" cy="1.072" r="1.072" transform="translate(129.699 21.051)" fill="#5222d0"/>
        <circle id="Elipse_267" data-name="Elipse 267" cx="0.938" cy="0.938" r="0.938" transform="translate(89.056 23.195)" fill="#5222d0"/>
        <circle id="Elipse_268" data-name="Elipse 268" cx="0.715" cy="0.715" r="0.715" transform="translate(5.656 97.007)" fill="#5222d0"/>
        <circle id="Elipse_269" data-name="Elipse 269" cx="1.787" cy="1.787" r="1.787" transform="translate(132.23 151.258)" fill="#5222d0"/>
        <circle id="Elipse_270" data-name="Elipse 270" cx="0.938" cy="0.938" r="0.938" transform="translate(152.209)" fill="#5222d0"/>
        <g id="Grupo_11479" data-name="Grupo 11479" transform="translate(61.472 35.404)">
          <g id="Grupo_11478" data-name="Grupo 11478">
            <path id="Caminho_11258" data-name="Caminho 11258" d="M558.963,304.9c-.149-.923-.283-2.769,1.191-2.62.536.06.834.536,1.429.328,1.117-.387.863-1.831,1.325-2.665.759-1.34,2.233.61,3.365-.03a1,1,0,0,0,.447-1c-.03-1.5,1.3-1.4,2.382-1.1a.224.224,0,0,0,.119-.432c-1.1-.3-2.933-.4-2.978,1.191-.015.387.194.774-.372,1.012a1.171,1.171,0,0,1-.64-.06c-.387-.119-.729-.387-1.131-.491a1.274,1.274,0,0,0-1.385.372,5.27,5.27,0,0,0-.64,1.891c-.223.67-.655,1.057-1.385.729a1.606,1.606,0,0,0-.908-.208c-1.533.208-1.459,2.069-1.265,3.2.06.283.491.164.447-.119Z" transform="translate(-558.415 -297.207)" fill="#5222d0"/>
          </g>
        </g>
        <g id="Grupo_11481" data-name="Grupo 11481" transform="translate(63.327 37.366)">
          <g id="Grupo_11480" data-name="Grupo 11480">
            <path id="Caminho_11259" data-name="Caminho 11259" d="M571.329,316.983a1.555,1.555,0,0,1,1.727-1.325,3.851,3.851,0,0,0,1.37-.089c1.012-.387.819-1.489,1.057-2.352.447-1.638,2.516-.625,3.662-.893a1.4,1.4,0,0,0,1.1-1.786c-.1-.268-.536-.149-.432.119.506,1.236-1.221,1.31-1.95,1.221a4.408,4.408,0,0,0-1.593-.015,1.751,1.751,0,0,0-1.3,1.653c-.1.744-.089,1.563-1.057,1.682a13.706,13.706,0,0,0-1.563.03,1.952,1.952,0,0,0-1.474,1.727c-.045.313.4.313.447.03Z" transform="translate(-570.879 -310.385)" fill="#5222d0"/>
          </g>
        </g>
        <g id="Grupo_11483" data-name="Grupo 11483" transform="translate(93.652 7.324)">
          <g id="Grupo_11482" data-name="Grupo 11482">
            <path id="Caminho_11260" data-name="Caminho 11260" d="M775.456,108.671a2.692,2.692,0,0,0-.819,2.337,1.287,1.287,0,0,0,1.459.938c.4-.03.819-.134,1.146.223.253.268.089.834.015,1.131a4.133,4.133,0,0,0-.3,1.4,1.094,1.094,0,0,0,1.3,1.042c.283-.06.164-.491-.119-.432-1.3.3-.4-1.861-.342-2.382a1.454,1.454,0,0,0-.357-1.221,1.311,1.311,0,0,0-1.146-.238c-.655.074-1.265-.134-1.3-.923a2.631,2.631,0,0,1,.759-1.578c.208-.194-.119-.521-.3-.3Z" transform="translate(-774.574 -108.596)" fill="#5222d0"/>
          </g>
        </g>
        <g id="Grupo_11485" data-name="Grupo 11485" transform="translate(97.041 7.158)">
          <g id="Grupo_11484" data-name="Grupo 11484">
            <path id="Caminho_11261" data-name="Caminho 11261" d="M798.342,107.5a1.516,1.516,0,0,0-.372,2.665c.357.268.774.208,1.131.432.67.4.134,1.191.164,1.816a.946.946,0,0,0,.357.789.722.722,0,0,0,1.161-.3c.089-.268-.342-.387-.432-.119-.566-.074-.759-.328-.6-.759l.089-.447a2.271,2.271,0,0,0,.045-.447,1.165,1.165,0,0,0-.328-.863c-.357-.328-.908-.194-1.3-.462a1.1,1.1,0,0,1,.3-1.935c.268-.1.03-.476-.223-.372Z" transform="translate(-797.335 -107.478)" fill="#5222d0"/>
          </g>
        </g>
        <g id="Grupo_11487" data-name="Grupo 11487" transform="translate(0 86.603)">
          <g id="Grupo_11486" data-name="Grupo 11486">
            <path id="Caminho_11262" data-name="Caminho 11262" d="M146.207,649.687a1.605,1.605,0,0,1,0-1.742c.342-.536.819-.551,1.37-.759.759-.313.774-1.1.729-1.816a2.264,2.264,0,0,1,.045-.774c.194-.6.7-.432,1.161-.357a1,1,0,0,0,.744-.149,1.531,1.531,0,0,0,.551-.864c.074-.268.089-.551.149-.819a1.626,1.626,0,0,1,.179-.536c.238-.372.521-.4.863-.074a.224.224,0,0,0,.432-.119c-.268-.968-1.459-.536-1.757.149a5.526,5.526,0,0,0-.223.983,2.018,2.018,0,0,1-.179.581c-.223.4-.64.328-1.027.283-.462-.045-.819-.089-1.117.342a2.682,2.682,0,0,0-.253,1.638c.015.685-.134.953-.8,1.176a2.257,2.257,0,0,0-.729.313,2.074,2.074,0,0,0-.521,2.754c.149.253.536.03.387-.208Z" transform="translate(-145.508 -641.114)" fill="#ec615b"/>
          </g>
        </g>
        <g id="Grupo_11489" data-name="Grupo 11489" transform="translate(1.724 88.865)">
          <g id="Grupo_11488" data-name="Grupo 11488">
            <path id="Caminho_11263" data-name="Caminho 11263" d="M157.925,663.646c-.625-.089-.387-.774-.1-1.042a3.187,3.187,0,0,1,.759-.447,2.733,2.733,0,0,0,.893-.64c.64-.8-.283-1.876.61-2.516s3.29-.908,2.59-2.576c-.1-.268-.491-.03-.387.223.506,1.206-1.95,1.563-2.576,2.069a1.5,1.5,0,0,0-.506.7c-.179.625.342,1.265-.119,1.861-.536.655-1.682.655-1.95,1.578a.944.944,0,0,0,.685,1.236c.268.03.387-.4.1-.447Z" transform="translate(-157.09 -656.308)" fill="#ec615b"/>
          </g>
        </g>
        <g id="Grupo_11491" data-name="Grupo 11491" transform="translate(165.178 55.032)">
          <g id="Grupo_11490" data-name="Grupo 11490">
            <path id="Caminho_11264" data-name="Caminho 11264" d="M1255.59,435.626a.977.977,0,0,1,.045-1.042c.328-.476.715-.372,1.221-.328a1.492,1.492,0,0,0,.982-.089c.581-.357.491-1.1.6-1.667.238-1.325,1.385-.119,2.159-.536a.959.959,0,0,0,.447-.729c.1-.581.134-2.308,1.25-1.608.238.149.476-.238.223-.387-1-.61-1.8.4-1.891,1.34-.06.536,0,1.057-.715.983-.253-.03-.506-.164-.759-.194a.955.955,0,0,0-.983.432,4.394,4.394,0,0,0-.268,1.385c-.223,1.012-1.087.447-1.786.566a1.425,1.425,0,0,0-.923,2.084.226.226,0,0,0,.4-.208Z" transform="translate(-1255.011 -429.053)" fill="#ec615b"/>
          </g>
        </g>
        <g id="Grupo_11493" data-name="Grupo 11493" transform="translate(167.487 57.017)">
          <g id="Grupo_11492" data-name="Grupo 11492">
            <path id="Caminho_11265" data-name="Caminho 11265" d="M1271.008,447.911a.9.9,0,0,1,1.221-1.087.222.222,0,0,0,.268-.03,3.044,3.044,0,0,0,.581-1.28c.268-.863.908-.983,1.682-1.221.759-.238,1.608-.863,1.3-1.757-.1-.268-.536-.149-.432.119.432,1.176-1.682,1.265-2.308,1.7-.759.536-.536,1.5-1.116,2.129a1.641,1.641,0,0,1,.268-.03,1.349,1.349,0,0,0-1.876,1.593c.089.253.521.149.417-.134Z" transform="translate(-1270.52 -442.385)" fill="#ec615b"/>
          </g>
        </g>
        <g id="Grupo_11495" data-name="Grupo 11495" transform="translate(107.567 65.983)">
          <g id="Grupo_11494" data-name="Grupo 11494">
            <path id="Caminho_11266" data-name="Caminho 11266" d="M868.313,503.067a8.358,8.358,0,0,0,.491.908.867.867,0,0,0,.715.134c.447-.074.729-.4,1.117-.61.834-.476.834.342,1.161.8.372.551.774.283,1.206.015.283-.179.551-.3.8-.045a3.081,3.081,0,0,1,.328.521,1.454,1.454,0,0,0,.61.551c.253.119.491-.268.223-.387-.61-.268-.685-1.28-1.414-1.385-.342-.045-.491.149-.759.3-.328.194-.521.328-.73-.045-.089-.149-.1-.357-.208-.506-.476-.789-1.221-.357-1.816.03a2.454,2.454,0,0,1-.328.208c-.253-.074-.521-.149-.774-.223-.1-.1-.1-.357-.194-.491a.469.469,0,0,0-.536-.223c-.3.06-.179.491.1.447Z" transform="translate(-868.035 -502.606)" fill="#ec615b"/>
          </g>
        </g>
        <g id="Grupo_11497" data-name="Grupo 11497" transform="translate(110.925 64.407)">
          <g id="Grupo_11496" data-name="Grupo 11496">
            <path id="Caminho_11267" data-name="Caminho 11267" d="M891.009,492.63c.447-.7,1.474.759,1.891.938a1.108,1.108,0,0,0,.759.03,2.146,2.146,0,0,0,.328-.134.968.968,0,0,1,1.072.223c.476.4.61.938,1.3,1.087a.784.784,0,0,0,.953-.417c.119-.253-.268-.491-.387-.223-.417.893-1.563-.863-1.861-1.057-.551-.357-.893-.06-1.444.06-.878.179-1.161-.8-1.891-1.042a.845.845,0,0,0-1.087.328c-.179.238.208.461.372.208Z" transform="translate(-890.591 -492.023)" fill="#ec615b"/>
          </g>
        </g>
      </g>
      <g id="background_grey" transform="translate(1.424 8.043)">
        <g id="Grupo_11499" data-name="Grupo 11499" transform="translate(165.341 82.548)">
          <g id="Grupo_11498" data-name="Grupo 11498">
            <path id="Caminho_11268" data-name="Caminho 11268" d="M1265.887,668.347h23.731a.224.224,0,0,0,0-.447h-23.731a.224.224,0,0,0,0,.447Z" transform="translate(-1265.675 -667.9)" fill="#e8e8e8"/>
          </g>
        </g>
        <g id="Grupo_11501" data-name="Grupo 11501" transform="translate(172.029 82.678)">
          <g id="Grupo_11500" data-name="Grupo 11500">
            <path id="Caminho_11269" data-name="Caminho 11269" d="M1310.6,668.987v6.908a.224.224,0,0,0,.447,0v-6.908a.224.224,0,0,0-.447,0Z" transform="translate(-1310.6 -668.775)" fill="#e8e8e8"/>
          </g>
        </g>
        <g id="Grupo_11503" data-name="Grupo 11503" transform="translate(182.629 72.807)">
          <g id="Grupo_11502" data-name="Grupo 11502">
            <path id="Caminho_11270" data-name="Caminho 11270" d="M1382.247,612.334v-9.647a.224.224,0,0,0-.447,0v9.647a.223.223,0,1,0,.447,0Z" transform="translate(-1381.8 -602.475)" fill="#e8e8e8"/>
          </g>
        </g>
        <g id="Grupo_11505" data-name="Grupo 11505" transform="translate(177.609 72.752)">
          <g id="Grupo_11504" data-name="Grupo 11504">
            <path id="Caminho_11271" data-name="Caminho 11271" d="M1348.287,602.547h8.977a.224.224,0,0,0,0-.447h-8.977a.224.224,0,0,0,0,.447Z" transform="translate(-1348.075 -602.1)" fill="#e8e8e8"/>
          </g>
        </g>
        <g id="Grupo_11507" data-name="Grupo 11507" transform="translate(171.94 19.376)">
          <g id="Grupo_11506" data-name="Grupo 11506">
            <path id="Caminho_11272" data-name="Caminho 11272" d="M1310,243.787v8.337a.224.224,0,0,0,.447,0v-8.337a.224.224,0,0,0-.447,0Z" transform="translate(-1310 -243.575)" fill="#e8e8e8"/>
          </g>
        </g>
        <g id="Grupo_11509" data-name="Grupo 11509" transform="translate(164.764 28.119)">
          <g id="Grupo_11508" data-name="Grupo 11508">
            <path id="Caminho_11273" data-name="Caminho 11273" d="M1262.023,302.747h16.108a.224.224,0,0,0,0-.447h-16.108a.223.223,0,1,0,0,.447Z" transform="translate(-1261.8 -302.3)" fill="#e8e8e8"/>
          </g>
        </g>
        <g id="Grupo_11511" data-name="Grupo 11511" transform="translate(180.947 28.294)">
          <g id="Grupo_11510" data-name="Grupo 11510">
            <path id="Caminho_11274" data-name="Caminho 11274" d="M1370.5,303.687v5.538a.224.224,0,0,0,.447,0v-5.538a.224.224,0,0,0-.447,0Z" transform="translate(-1370.5 -303.475)" fill="#e8e8e8"/>
          </g>
        </g>
        <g id="Grupo_11513" data-name="Grupo 11513" transform="translate(31.214 10.462)">
          <g id="Grupo_11512" data-name="Grupo 11512">
            <path id="Caminho_11275" data-name="Caminho 11275" d="M364.955,184.147h15.781a.224.224,0,0,0,0-.447H364.955a.223.223,0,0,0,0,.447Z" transform="translate(-364.737 -183.7)" fill="#e8e8e8"/>
          </g>
        </g>
        <g id="Grupo_11515" data-name="Grupo 11515" transform="translate(46.557 10.641)">
          <g id="Grupo_11514" data-name="Grupo 11514" transform="translate(0)">
            <path id="Caminho_11276" data-name="Caminho 11276" d="M467.8,185.123v4.288a.224.224,0,0,0,.447,0v-4.288a.223.223,0,1,0-.447,0Z" transform="translate(-467.8 -184.9)" fill="#e8e8e8"/>
          </g>
        </g>
        <g id="Grupo_11517" data-name="Grupo 11517" transform="translate(41.332 3.431)">
          <g id="Grupo_11516" data-name="Grupo 11516">
            <path id="Caminho_11277" data-name="Caminho 11277" d="M433.147,143.55v-6.863a.224.224,0,0,0-.447,0v6.863a.223.223,0,0,0,.447,0Z" transform="translate(-432.7 -136.475)" fill="#e8e8e8"/>
          </g>
        </g>
        <g id="Grupo_11519" data-name="Grupo 11519" transform="translate(0 56.345)">
          <g id="Grupo_11518" data-name="Grupo 11518">
            <path id="Caminho_11278" data-name="Caminho 11278" d="M155.287,492.347h10.9a.224.224,0,0,0,0-.447h-10.9a.224.224,0,0,0,0,.447Z" transform="translate(-155.075 -491.9)" fill="#e8e8e8"/>
          </g>
        </g>
        <g id="Grupo_11521" data-name="Grupo 11521" transform="translate(6.867 52.099)">
          <g id="Grupo_11520" data-name="Grupo 11520">
            <path id="Caminho_11279" data-name="Caminho 11279" d="M201.2,463.587v4.02a.224.224,0,0,0,.447,0v-4.02a.224.224,0,0,0-.447,0Z" transform="translate(-201.2 -463.375)" fill="#e8e8e8"/>
          </g>
        </g>
        <g id="Grupo_11523" data-name="Grupo 11523" transform="translate(4.023 52.088)">
          <g id="Grupo_11522" data-name="Grupo 11522">
            <path id="Caminho_11280" data-name="Caminho 11280" d="M182.323,463.747h5.806a.224.224,0,0,0,0-.447h-5.806a.223.223,0,0,0,0,.447Z" transform="translate(-182.1 -463.3)" fill="#e8e8e8"/>
          </g>
        </g>
        <g id="Grupo_11525" data-name="Grupo 11525" transform="translate(69.588 145.954)">
          <g id="Grupo_11524" data-name="Grupo 11524">
            <path id="Caminho_11281" data-name="Caminho 11281" d="M622.723,1094.247h14.56a.224.224,0,0,0,0-.447h-14.56a.223.223,0,1,0,0,.447Z" transform="translate(-622.5 -1093.8)" fill="#e8e8e8"/>
          </g>
        </g>
        <g id="Grupo_11527" data-name="Grupo 11527" transform="translate(78.327 142.6)">
          <g id="Grupo_11526" data-name="Grupo 11526">
            <path id="Caminho_11282" data-name="Caminho 11282" d="M681.647,1074.629v-3.141a.224.224,0,0,0-.447,0v3.141a.223.223,0,0,0,.447,0Z" transform="translate(-681.2 -1071.275)" fill="#e8e8e8"/>
          </g>
        </g>
        <g id="Grupo_11529" data-name="Grupo 11529" transform="translate(77.207 142.381)">
          <g id="Grupo_11528" data-name="Grupo 11528">
            <path id="Caminho_11283" data-name="Caminho 11283" d="M673.887,1070.247h6.044a.224.224,0,0,0,0-.447h-6.044a.224.224,0,0,0,0,.447Z" transform="translate(-673.675 -1069.8)" fill="#e8e8e8"/>
          </g>
        </g>
        <g id="Grupo_11531" data-name="Grupo 11531" transform="translate(0.342 138.123)">
          <g id="Grupo_11530" data-name="Grupo 11530">
            <path id="Caminho_11284" data-name="Caminho 11284" d="M157.587,1041.647h14.56a.224.224,0,0,0,0-.447h-14.56a.224.224,0,0,0,0,.447Z" transform="translate(-157.375 -1041.2)" fill="#e8e8e8"/>
          </g>
        </g>
        <g id="Grupo_11533" data-name="Grupo 11533" transform="translate(7.284 132.521)">
          <g id="Grupo_11532" data-name="Grupo 11532">
            <path id="Caminho_11285" data-name="Caminho 11285" d="M204,1003.787v5.151a.224.224,0,0,0,.447,0v-5.151a.224.224,0,0,0-.447,0Z" transform="translate(-204 -1003.575)" fill="#e8e8e8"/>
          </g>
        </g>
        <g id="Grupo_11535" data-name="Grupo 11535" transform="translate(1.251 132.064)">
          <g id="Grupo_11534" data-name="Grupo 11534">
            <path id="Caminho_11286" data-name="Caminho 11286" d="M169.508,1000.5h-5.821a.224.224,0,0,0,0,.447h5.821a.224.224,0,0,0,0-.447Z" transform="translate(-163.475 -1000.5)" fill="#e8e8e8"/>
          </g>
        </g>
        <g id="Grupo_11537" data-name="Grupo 11537" transform="translate(161.635 118.685)">
          <g id="Grupo_11536" data-name="Grupo 11536">
            <path id="Caminho_11287" data-name="Caminho 11287" d="M1241.544,917.421a.948.948,0,0,1,.387-1.608c.4-.089.789.164,1.176.208a.78.78,0,0,0,.8-.253c.3-.387.06-.834.045-1.265-.03-1.355,1.578-1.266,2.382-.789a.226.226,0,0,0,.328-.253,1.959,1.959,0,0,1,3.2-1.906c.223.179.536-.134.313-.313a2.411,2.411,0,0,0-3.945,2.352c.1-.089.223-.164.328-.253a2.168,2.168,0,0,0-2.293-.164,1.538,1.538,0,0,0-.625.715,1.3,1.3,0,0,0-.119.625c.015.4.149.372-.149.759-.327.432-.357.238-.819.134a1.385,1.385,0,0,0-1.444.4,1.379,1.379,0,0,0,.134,1.921c.194.208.506-.1.3-.313Z" transform="translate(-1240.782 -910.638)" fill="#e8e8e8"/>
          </g>
        </g>
        <g id="Grupo_11539" data-name="Grupo 11539" transform="translate(164.86 121.495)">
          <g id="Grupo_11538" data-name="Grupo 11538">
            <path id="Caminho_11288" data-name="Caminho 11288" d="M1262.885,933.929c-.164-1.355,2.054-1.37,2.68-2.308a3.779,3.779,0,0,0,.328-.759,1.473,1.473,0,0,1,1.042-.893,3.931,3.931,0,0,1,2.412.476c.268.1.387-.328.119-.432-1.37-.566-3.216-1-3.975.67-.268.6-.357.923-.983,1.236-.372.179-.759.283-1.117.491a1.587,1.587,0,0,0-.938,1.519c.03.283.476.283.432,0Z" transform="translate(-1262.445 -929.509)" fill="#e8e8e8"/>
          </g>
        </g>
        <g id="Grupo_11541" data-name="Grupo 11541" transform="translate(100.762 82.358)">
          <g id="Grupo_11540" data-name="Grupo 11540">
            <path id="Caminho_11289" data-name="Caminho 11289" d="M832.4,666.892c.3.744.6,1.5.893,2.248.03-.089.074-.164.1-.253-.164.1-.328.208-.491.328-.253-.6-.149-.744.328-.476a1.328,1.328,0,0,1,.476.878,4.233,4.233,0,0,1-.253,2.144.218.218,0,0,0,.268.268c.893-.179,1.25.893,1.072,1.563a5.228,5.228,0,0,1-.67,1.355c-.149.238.238.461.387.223a3.071,3.071,0,0,0,.7-2.59,1.427,1.427,0,0,0-1.608-.983l.268.268a4.114,4.114,0,0,0,.119-2.829,1.276,1.276,0,0,0-1.489-.834.8.8,0,0,0-.521,1.146c.4.819,1.1.268,1.623-.074a.241.241,0,0,0,.1-.253c-.3-.744-.6-1.5-.893-2.248-.089-.253-.521-.149-.417.119Z" transform="translate(-831.893 -666.629)" fill="#e8e8e8"/>
          </g>
        </g>
        <g id="Grupo_11543" data-name="Grupo 11543" transform="translate(12.739 10.922)">
          <g id="Grupo_11542" data-name="Grupo 11542">
            <path id="Caminho_11290" data-name="Caminho 11290" d="M241.13,188.055c-.283-.715.67-.908,1.117-.655a2.487,2.487,0,0,1,.774.849,3.72,3.72,0,0,1,.506.923.886.886,0,0,1-.045.819c-.521.238-.789.179-.8-.164-.134-.491.387-.819.834-.8a1.824,1.824,0,0,1,1.206.61,2.573,2.573,0,0,1,.655,2.069c.134-.045.283-.074.417-.119a.775.775,0,0,1,.387-1.117,1.11,1.11,0,0,1,1.057.045,3.953,3.953,0,0,1,1.251,1.28c.164.238.551.015.387-.223-.566-.789-1.414-1.891-2.531-1.638-.819.179-1.474,1.131-.938,1.876a.226.226,0,0,0,.417-.119c.134-1.414-.908-3.35-2.576-3.112a1.118,1.118,0,0,0-1.027,1.117.938.938,0,0,0,.8,1,1.059,1.059,0,0,0,1.027-1.072,3.5,3.5,0,0,0-.983-2.1,1.539,1.539,0,0,0-1.682-.655.987.987,0,0,0-.67,1.28c.089.3.521.179.417-.089Z" transform="translate(-240.646 -186.787)" fill="#e8e8e8"/>
          </g>
        </g>
        <g id="Grupo_11545" data-name="Grupo 11545" transform="translate(90.91 32.473)">
          <g id="Grupo_11544" data-name="Grupo 11544">
            <path id="Caminho_11291" data-name="Caminho 11291" d="M766.461,333.1c-.625-.372-.179-1.474.521-1.012.67.447-.223,1.206-.655.685-.179-.223-.491.089-.313.313a.984.984,0,0,0,1.385.045.879.879,0,0,0-.134-1.385.949.949,0,0,0-1.414.268,1.117,1.117,0,0,0,.4,1.474c.223.134.447-.238.208-.387Z" transform="translate(-765.72 -331.546)" fill="#e8e8e8"/>
          </g>
        </g>
        <g id="Grupo_11547" data-name="Grupo 11547" transform="translate(138.501)">
          <g id="Grupo_11546" data-name="Grupo 11546">
            <path id="Caminho_11292" data-name="Caminho 11292" d="M1085.974,114.9a.66.66,0,0,1,.759-.953c-.045-.03-.089-.074-.134-.1a.777.777,0,0,1-.685,1.131,2.544,2.544,0,0,1,.208.164c-.089-.253-.194-.521-.283-.774s-.536-.149-.432.119.193.521.283.774a.207.207,0,0,0,.208.164,1.175,1.175,0,0,0,1.1-.685c.164-.328.253-1.012-.149-1.221-.878-.432-1.786.878-1.266,1.608.164.238.551.015.387-.223Z" transform="translate(-1085.392 -113.427)" fill="#e8e8e8"/>
          </g>
        </g>
        <g id="Grupo_11549" data-name="Grupo 11549" transform="translate(150.731 22.358)">
          <g id="Grupo_11548" data-name="Grupo 11548">
            <path id="Caminho_11293" data-name="Caminho 11293" d="M1168.007,264.855a.694.694,0,0,1,.521-.789.618.618,0,0,1,.67.476c.193.67-.685.983-1.1.521-.193-.208-.506.1-.312.313a1.062,1.062,0,0,0,1.786-1.087,1.043,1.043,0,0,0-1.25-.64,1.15,1.15,0,0,0-.759,1.325.231.231,0,0,0,.447-.119Z" transform="translate(-1167.536 -263.605)" fill="#e8e8e8"/>
          </g>
        </g>
        <g id="Grupo_11551" data-name="Grupo 11551" transform="translate(101.998 142.902)">
          <g id="Grupo_11550" data-name="Grupo 11550">
            <path id="Caminho_11294" data-name="Caminho 11294" d="M841.075,1077.233a.754.754,0,0,1,0-1.34c.506-.283.983-.03,1.444.179.387.179.834.342,1.176,0,.313-.3.253-.759.268-1.146.06-1.5,1.519-1.206,2.516-.834.268.1.387-.328.119-.432-.878-.342-2.1-.67-2.8.194a1.4,1.4,0,0,0-.283.864c-.015.208.074.67-.045.863-.328.491-.774.045-1.117-.1a1.59,1.59,0,0,0-1.995.476,1.175,1.175,0,0,0,.476,1.652c.268.134.491-.253.238-.372Z" transform="translate(-840.196 -1073.303)" fill="#e8e8e8"/>
          </g>
        </g>
      </g>
      <g id="flower" transform="translate(111.288 89.199)">
        <g id="Grupo_11553" data-name="Grupo 11553" transform="translate(0 30.374)">
          <g id="Grupo_11552" data-name="Grupo 11552">
            <path id="Caminho_11295" data-name="Caminho 11295" d="M893.251,862.787a65.352,65.352,0,0,0,.714,16.347c.045.283.476.164.432-.119a65.11,65.11,0,0,1-.7-16.227c.03-.283-.417-.283-.447,0Z" transform="translate(-893.033 -862.575)" fill="#e8e8e8"/>
          </g>
        </g>
        <g id="Grupo_11555" data-name="Grupo 11555" transform="translate(0.361 30.481)">
          <g id="Grupo_11554" data-name="Grupo 11554">
            <path id="Caminho_11296" data-name="Caminho 11296" d="M895.612,863.74a32.807,32.807,0,0,0,7.161,1.608c2.293.238,4.928.491,7.131-.372.268-.1.149-.536-.119-.432-2.144.849-4.749.6-7.012.357a31.747,31.747,0,0,1-7.042-1.593c-.283-.1-.387.328-.119.432Z" transform="translate(-895.457 -863.292)" fill="#e8e8e8"/>
          </g>
        </g>
        <g id="Grupo_11557" data-name="Grupo 11557" transform="translate(0.09 0.63)">
          <g id="Grupo_11556" data-name="Grupo 11556">
            <path id="Caminho_11297" data-name="Caminho 11297" d="M897.606,693.691a16.759,16.759,0,0,1-1.861-3.856,18.459,18.459,0,0,1-.521-1.98c-.074-.4-.149-.8-.194-1.206,0-.045-.164-1.1.149-.953.149.074.4-.06.328-.253a18.537,18.537,0,0,1-1.31-6.476l-.223.223c.119.045.223.089.342.134.149.179.432-.015.372-.223a12.278,12.278,0,0,1-.551-2.948,13.982,13.982,0,0,1,.194-2.873.222.222,0,0,0,.268-.268,24.348,24.348,0,0,1-.342-5.092,20.257,20.257,0,0,1,.238-2.516,3.688,3.688,0,0,1,.774-2.233l-.357-.045a32.568,32.568,0,0,1,2.59,7.488q.938,3.774,1.653,7.622a122.79,122.79,0,0,1,1.846,16c.015.283.462.283.447,0a122.366,122.366,0,0,0-1.861-16.123q-.737-3.975-1.712-7.905a31.967,31.967,0,0,0-2.576-7.325.234.234,0,0,0-.357-.045,2.84,2.84,0,0,0-.774,1.712,24.684,24.684,0,0,0-.342,2.769,25.186,25.186,0,0,0,.328,5.791l.268-.268c-.863-.238-.759,1.623-.774,2.04a12.889,12.889,0,0,0,.6,4.317c.119-.074.253-.149.372-.223a.661.661,0,0,0-.655-.268.229.229,0,0,0-.223.223,18.937,18.937,0,0,0,1.325,6.6c.1-.089.223-.164.328-.253-1.489-.715-.625,2.65-.506,3.156a17.319,17.319,0,0,0,2.322,5.449c.179.268.566.045.4-.194Z" transform="translate(-893.636 -662.782)" fill="#e8e8e8"/>
          </g>
        </g>
        <g id="Grupo_11559" data-name="Grupo 11559" transform="translate(5.907)">
          <g id="Grupo_11558" data-name="Grupo 11558">
            <path id="Caminho_11298" data-name="Caminho 11298" d="M933.232,675.217a10.922,10.922,0,0,1-.045-2.873c.03-.238.6-3.037.878-2.918a.234.234,0,0,0,.342-.193,16.377,16.377,0,0,1,1.385-5.36,19.84,19.84,0,0,1,2.546-4.928h-.313c.849.968.744,2.442.789,3.647.06,1.355.1,2.71.119,4.064q.045,4-.134,7.995a132.382,132.382,0,0,1-1.786,16.257c-.045.283.387.4.432.119a134.795,134.795,0,0,0,1.831-16.957q.179-4.288.089-8.575c-.03-1.429-.06-2.858-.164-4.288a4.058,4.058,0,0,0-.863-2.59.216.216,0,0,0-.313,0,19.21,19.21,0,0,0-2.546,4.868,17.448,17.448,0,0,0-1.5,5.747c.119-.06.223-.134.342-.194-.908-.4-1.206,1.533-1.325,2.054a11.228,11.228,0,0,0-.149,4.228c-.015.3.417.179.387-.1Z" transform="translate(-932.712 -658.55)" fill="#e8e8e8"/>
          </g>
        </g>
        <g id="Grupo_11561" data-name="Grupo 11561" transform="translate(0.98 46.653)">
          <g id="Grupo_11560" data-name="Grupo 11560">
            <path id="Caminho_11299" data-name="Caminho 11299" d="M899.775,972.571a22.357,22.357,0,0,0,14.322-.208c.268-.089.149-.521-.119-.432a22.034,22.034,0,0,1-14.084.208.224.224,0,0,0-.119.432Z" transform="translate(-899.614 -971.919)" fill="#e8e8e8"/>
          </g>
        </g>
        <g id="Grupo_11563" data-name="Grupo 11563" transform="translate(14.748 31.804)">
          <g id="Grupo_11562" data-name="Grupo 11562">
            <path id="Caminho_11300" data-name="Caminho 11300" d="M992.1,872.387c.179,2.412.372,4.824.536,7.235a32.245,32.245,0,0,1-.179,7.384c-.045.283.387.4.432.119a30.835,30.835,0,0,0,.208-7.22c-.164-2.5-.357-5.017-.551-7.518-.015-.283-.462-.283-.447,0Z" transform="translate(-992.098 -872.175)" fill="#e8e8e8"/>
          </g>
        </g>
      </g>
    </g>
    <g id="window" transform="translate(162.919 99.874)">
      <path id="Caminho_11301" data-name="Caminho 11301" d="M458.4,960.295c3.037-1.623,6.089-3.245,9.126-4.868,1.429.238,3.394.551,5.747.878a192.19,192.19,0,0,0,21.87,1.995,156.024,156.024,0,0,0,19.518-.6,79.077,79.077,0,0,0,13.845-2.352A73.11,73.11,0,0,0,535.651,953a32.856,32.856,0,0,1,4.719,1.995,30.47,30.47,0,0,1,2.65,1.548c-2.8.8-6.565,1.831-11.047,2.873-9.439,2.2-16.674,3.245-18.193,3.469-8.679,1.236-21.051,2.978-36.609,1.176A121.208,121.208,0,0,1,458.4,960.295Z" transform="translate(-429.229 -860.438)" fill="#fff"/>
      <path id="Caminho_11302" data-name="Caminho 11302" d="M457.3,978.949c.074.625.164,1.236.238,1.861,1.117.313,2.754.759,4.779,1.206a89.1,89.1,0,0,0,12.937,1.861,229.757,229.757,0,0,0,34.122.164c7.578-.67,14.932-1.355,24.43-4.124,3.573-1.042,6.491-2.1,8.575-2.918l-.491-2.1c-.581.238-1.444.581-2.5.968a77.555,77.555,0,0,1-18.356,4.124c-11.583,1.429-17.374,2.129-25.875,2.263A186.1,186.1,0,0,1,457.3,978.949Z" transform="translate(-428.293 -879.078)" fill="#161616"/>
      <g id="Grupo_11565" data-name="Grupo 11565" transform="translate(28.903 99.931)">
        <g id="Grupo_11564" data-name="Grupo 11564">
          <path id="Caminho_11303" data-name="Caminho 11303" d="M456.6,1002.723v1.429a.224.224,0,0,0,.447,0v-1.429a.223.223,0,0,0-.447,0Z" transform="translate(-456.6 -1002.5)" fill="#161616"/>
        </g>
      </g>
      <g id="Grupo_11567" data-name="Grupo 11567" transform="translate(28.905 97.741)">
        <g id="Grupo_11566" data-name="Grupo 11566">
          <path id="Caminho_11304" data-name="Caminho 11304" d="M456.775,992.051c11.121,3.007,22.733,3.394,34.182,3.558a168.076,168.076,0,0,0,32.916-2.337A100.218,100.218,0,0,0,541.8,988.24c.268-.1.149-.536-.119-.432a112.482,112.482,0,0,1-32.068,6.848,242.243,242.243,0,0,1-33.2-.015,98.244,98.244,0,0,1-19.518-3.007.217.217,0,1,0-.119.417Z" transform="translate(-456.614 -987.792)" fill="#161616"/>
        </g>
      </g>
      <g id="Grupo_11569" data-name="Grupo 11569" transform="translate(113.654 95.774)">
        <g id="Grupo_11568" data-name="Grupo 11568">
          <path id="Caminho_11305" data-name="Caminho 11305" d="M1026.313,976.678a8.041,8.041,0,0,0,.06-1.891c-.03-.283-.476-.283-.447,0a7.823,7.823,0,0,1-.045,1.772c-.045.268.387.4.432.119Z" transform="translate(-1025.878 -974.575)" fill="#161616"/>
        </g>
      </g>
      <g id="Grupo_11571" data-name="Grupo 11571" transform="translate(28.916 94.885)">
        <g id="Grupo_11570" data-name="Grupo 11570">
          <path id="Caminho_11306" data-name="Caminho 11306" d="M457.032,973.832c3.126-1.489,6.193-3.082,9.2-4.809a.224.224,0,0,0-.223-.387q-4.511,2.568-9.2,4.809c-.268.119-.045.506.223.387Z" transform="translate(-456.687 -968.608)" fill="#161616"/>
        </g>
      </g>
      <g id="Grupo_11573" data-name="Grupo 11573" transform="translate(38.18 92.42)">
        <g id="Grupo_11572" data-name="Grupo 11572">
          <path id="Caminho_11307" data-name="Caminho 11307" d="M519.075,954.721a165.61,165.61,0,0,0,54.131,1.444,52.187,52.187,0,0,0,13.9-3.707c.268-.119.03-.506-.223-.387a49.5,49.5,0,0,1-12.461,3.454c-4.347.685-8.739,1.1-13.131,1.385a169.162,169.162,0,0,1-26.768-.432c-5.151-.491-10.257-1.236-15.334-2.188-.283-.045-.4.387-.119.432Z" transform="translate(-518.914 -952.049)" fill="#161616"/>
        </g>
      </g>
      <g id="Grupo_11575" data-name="Grupo 11575" transform="translate(106.127 92.311)">
        <g id="Grupo_11574" data-name="Grupo 11574">
          <path id="Caminho_11308" data-name="Caminho 11308" d="M975.475,951.763a30.809,30.809,0,0,1,7.459,3.6c.238.164.461-.223.223-.387a31.657,31.657,0,0,0-7.563-3.647.224.224,0,0,0-.119.432Z" transform="translate(-975.314 -951.319)" fill="#161616"/>
        </g>
      </g>
      <g id="Grupo_11577" data-name="Grupo 11577" transform="translate(29.137 95.631)">
        <g id="Grupo_11576" data-name="Grupo 11576">
          <path id="Caminho_11309" data-name="Caminho 11309" d="M458.326,977.859a67.747,67.747,0,0,0,16.242,3.052c5.583.447,11.21.581,16.808.581a185.509,185.509,0,0,0,33.229-2.754,132.532,132.532,0,0,0,18.386-4.675c.268-.089.149-.521-.119-.432a144.819,144.819,0,0,1-32.6,6.58,220.646,220.646,0,0,1-33.2.417,72.057,72.057,0,0,1-18.654-3.2c-.238-.089-.357.342-.089.432Z" transform="translate(-458.173 -973.619)" fill="#161616"/>
        </g>
      </g>
      <g id="Grupo_11579" data-name="Grupo 11579" transform="translate(37.584 9.036)">
        <g id="Grupo_11578" data-name="Grupo 11578">
          <path id="Caminho_11310" data-name="Caminho 11310" d="M515.194,397.772c18.193-4.213,36.921-5.136,55.531-5.315,5.27-.06,10.54-.045,15.811-.045a.224.224,0,0,0,0-.447c-18.669-.03-37.427-.045-55.962,2.531-5.211.729-10.377,1.653-15.5,2.844a.224.224,0,0,0,.119.432Z" transform="translate(-514.914 -391.96)" fill="#161616"/>
        </g>
      </g>
      <path id="Caminho_11311" data-name="Caminho 11311" d="M983.646,342.679c.194,6.923.313,14.947.268,23.865-.03,5.181-.074,2.71-.536,24.267-.268,12.416-.342,17.091-1.221,24.267-.566,4.675-1.251,8.516-1.757,11.121,3.841,1.072,7.5,2.084,10.719,2.978a63.231,63.231,0,0,0,8.277,2.04,33.03,33.03,0,0,0,11.121-.4c1.593-13.041,2.471-24.163,2.977-32.678,1.816-29.924.119-43.71-.536-48.548-.893-6.521-1.995-11.88-2.844-15.587-3.186.61-5.776,1.265-7.593,1.757a127.352,127.352,0,0,0-15.319,5.419C985.67,341.816,984.435,342.337,983.646,342.679Z" transform="translate(-873.516 -333.592)" fill="#fff"/>
      <path id="Caminho_11312" data-name="Caminho 11312" d="M285.894,335.8c-.119,1.28-.253,2.858-.372,4.228-2.471,28.182-3.707,42.281-4.109,51.347a257.759,257.759,0,0,0,1.623,41.4,3.241,3.241,0,0,0,1,1.251,7.463,7.463,0,0,0,2.605.863,17.284,17.284,0,0,1,1.995.744,23.036,23.036,0,0,0,8.337,1,36.862,36.862,0,0,0,13.056-3.231,50.777,50.777,0,0,0,6.967-3.484c-.923-8.292-1.608-17.046-1.995-26.232a378.254,378.254,0,0,1,1.623-53.461c-.685-.268-1.682-.64-2.858-1.117-2.025-.819-6.878-2.8-15.424-6.967C294.96,340.5,290.732,338.376,285.894,335.8Z" transform="translate(-278.399 -335.124)" fill="#fff"/>
      <path id="Caminho_11313" data-name="Caminho 11313" d="M1179.4,333.6c.179.983.417,2.337.685,3.96.372,2.308,1.206,7.771,1.816,14.947.625,7.474.774,13.9.789,19.026.045,10.391-.342,18.014-1.355,35.79-.313,5.538-.774,13.652-1.355,23.552.61-.045,1.206-.074,1.816-.119.3-2.471.7-6.149,1.012-10.645.238-3.246.342-5.613.447-8.158.521-11.672.61-11.538.789-16.3.357-9.394.283-16.615.223-23.105-.045-4.481-.179-8.724-.447-17.21a100.974,100.974,0,0,0-1.7-17.552c-.342-1.7-.67-3.112-.908-4.079C1180.606,333.674,1180.01,333.645,1179.4,333.6Z" transform="translate(-1042.89 -333.252)" fill="#161616"/>
      <path id="Caminho_11314" data-name="Caminho 11314" d="M269.375,337.6c-.1.521-.268,1.325-.432,2.308a53.032,53.032,0,0,0-.64,5.687c-.328,5.062-.983,7.533-1.935,18.773-.179,2.054-.313,3.856-.581,7.474-.551,7.384-.819,11.076-1.012,15.245-.208,4.66-.238,7.95-.283,14.53-.045,5.687-.074,9.8.074,15.17.119,4.288.357,10.109.938,17.046,1.206.357,2.4.715,3.6,1.072-.015-.67-.06-1.876-.149-3.379-.357-6.685-.938-9.394-1.072-14.962-.045-1.712-.015-2.844,0-4.466.164-11.642-.03-16.957.074-24.52.179-12.342,1.012-21.989,1.727-30.207.67-7.771,1.429-14.426,2.084-19.637C270.953,337.689,270.164,337.645,269.375,337.6Z" transform="translate(-264.159 -336.656)" fill="#161616"/>
      <g id="Grupo_11581" data-name="Grupo 11581" transform="translate(106.714 9.128)">
        <g id="Grupo_11580" data-name="Grupo 11580">
          <path id="Caminho_11315" data-name="Caminho 11315" d="M982.32,392.787c.551,10.927.476,21.885.328,32.812-.164,10.689-.238,21.408-1.057,32.083a165.421,165.421,0,0,1-2.322,18.133c-.06.283.372.4.432.119a205.541,205.541,0,0,0,3.037-31.83q.514-16.324.476-32.693c-.015-6.208-.119-12.416-.432-18.624-.03-.283-.476-.283-.462,0Z" transform="translate(-979.262 -392.575)" fill="#161616"/>
        </g>
      </g>
      <g id="Grupo_11583" data-name="Grupo 11583" transform="translate(109.988 0.119)">
        <g id="Grupo_11582" data-name="Grupo 11582">
          <path id="Caminho_11316" data-name="Caminho 11316" d="M1001.587,341.283a102.235,102.235,0,0,1,26.083-8.784c.283-.06.164-.491-.119-.432a103.656,103.656,0,0,0-26.187,8.828c-.253.134-.03.521.223.387Z" transform="translate(-1001.252 -332.062)" fill="#161616"/>
        </g>
      </g>
      <g id="Grupo_11585" data-name="Grupo 11585" transform="translate(136.251 0.145)">
        <g id="Grupo_11584" data-name="Grupo 11584">
          <path id="Caminho_11317" data-name="Caminho 11317" d="M1177.668,332.513a191.808,191.808,0,0,1,3.186,37.606c-.03,12.595-.774,25.16-1.385,37.74q-.536,10.875-1.072,21.736c-.015.283.432.283.447,0,.64-12.833,1.31-25.666,1.891-38.514a337.024,337.024,0,0,0,.074-37.8,163.647,163.647,0,0,0-2.695-20.872.229.229,0,0,0-.447.1Z" transform="translate(-1177.662 -332.235)" fill="#161616"/>
        </g>
      </g>
      <g id="Grupo_11587" data-name="Grupo 11587" transform="translate(106.734 92.076)">
        <g id="Grupo_11586" data-name="Grupo 11586">
          <path id="Caminho_11318" data-name="Caminho 11318" d="M979.453,950.12c.67.774,1.861.923,2.8,1.206,1.28.387,2.576.774,3.856,1.161,2.59.774,5.166,1.593,7.786,2.248a38.143,38.143,0,0,0,15.572.61c.283-.045.164-.476-.119-.432a37.5,37.5,0,0,1-15.334-.61c-2.4-.581-4.749-1.325-7.1-2.04l-3.573-1.072-1.786-.536a3.522,3.522,0,0,1-1.772-.849.227.227,0,0,0-.328.313Z" transform="translate(-979.392 -949.738)" fill="#161616"/>
        </g>
      </g>
      <g id="Grupo_11589" data-name="Grupo 11589" transform="translate(136.393 0)">
        <g id="Grupo_11588" data-name="Grupo 11588">
          <path id="Caminho_11319" data-name="Caminho 11319" d="M1178.775,331.7c.551.134,1.1.268,1.667.4a.224.224,0,0,0,.119-.432c-.551-.134-1.1-.268-1.667-.4-.283-.06-.4.372-.119.432Z" transform="translate(-1178.614 -331.262)" fill="#161616"/>
        </g>
      </g>
      <g id="Grupo_11591" data-name="Grupo 11591" transform="translate(138.184 0.413)">
        <g id="Grupo_11590" data-name="Grupo 11590">
          <path id="Caminho_11320" data-name="Caminho 11320" d="M1190.651,334.313c1.489,6.015,1.891,12.3,2.323,18.475.447,6.312.685,12.64.789,18.982.179,12.58-.253,25.16-.968,37.725-.4,7.116-.908,14.233-1.429,21.349-.015.283.432.283.447,0,.938-12.654,1.786-25.309,2.188-37.993.4-12.654.372-25.339-.432-37.993-.432-6.878-.819-13.935-2.471-20.649a.229.229,0,0,0-.447.1Z" transform="translate(-1190.642 -334.035)" fill="#161616"/>
        </g>
      </g>
      <g id="Grupo_11593" data-name="Grupo 11593" transform="translate(137.013 97.131)">
        <g id="Grupo_11592" data-name="Grupo 11592">
          <path id="Caminho_11321" data-name="Caminho 11321" d="M1182.987,984.317l1.95-.179c.283-.03.283-.476,0-.447l-1.95.179c-.283.03-.283.476,0,.447Z" transform="translate(-1182.775 -983.69)" fill="#161616"/>
        </g>
      </g>
      <g id="Grupo_11595" data-name="Grupo 11595" transform="translate(35.994 14.77)">
        <g id="Grupo_11594" data-name="Grupo 11594">
          <path id="Caminho_11322" data-name="Caminho 11322" d="M506.088,430.687q-1.5,15.476-1.786,31.026-.29,15.61.64,31.219c.342,5.836.834,11.657,1.429,17.463.03.283.476.283.447,0q-1.608-15.453-2.01-31.011-.4-15.61.417-31.219.469-8.754,1.3-17.478c.045-.283-.4-.283-.432,0Z" transform="translate(-504.232 -430.475)" fill="#161616"/>
        </g>
      </g>
      <g id="Grupo_11597" data-name="Grupo 11597" transform="translate(7.666 0.612)">
        <g id="Grupo_11596" data-name="Grupo 11596">
          <path id="Caminho_11323" data-name="Caminho 11323" d="M314.064,335.8a242.421,242.421,0,0,0,30,14.084c.268.1.387-.328.119-.432a240.772,240.772,0,0,1-29.894-14.039.223.223,0,0,0-.223.387Z" transform="translate(-313.952 -335.375)" fill="#161616"/>
        </g>
      </g>
      <g id="Grupo_11599" data-name="Grupo 11599" transform="translate(3.339 0.717)">
        <g id="Grupo_11598" data-name="Grupo 11598">
          <path id="Caminho_11324" data-name="Caminho 11324" d="M288.862,336.287q-2.479,18.892-3.424,37.963-.938,19.049-.3,38.112.357,10.7,1.206,21.379c.03.283.476.283.447,0q-1.518-19-1.459-38.082T287,357.576q.916-10.674,2.308-21.289c.03-.283-.417-.283-.447,0Z" transform="translate(-284.884 -336.075)" fill="#161616"/>
        </g>
      </g>
      <g id="Grupo_11601" data-name="Grupo 11601" transform="translate(4.677 94.434)">
        <g id="Grupo_11600" data-name="Grupo 11600">
          <path id="Caminho_11325" data-name="Caminho 11325" d="M293.98,969.807c8.292,4.511,18.222,3.543,26.649-.03A58.726,58.726,0,0,0,327.954,966c.238-.149.015-.536-.223-.387-7.846,4.749-17.046,8.069-26.321,6.342a24.3,24.3,0,0,1-7.206-2.531c-.238-.134-.476.253-.223.387Z" transform="translate(-293.872 -965.575)" fill="#161616"/>
        </g>
      </g>
      <g id="Grupo_11603" data-name="Grupo 11603" transform="translate(1.374 97.02)">
        <g id="Grupo_11602" data-name="Grupo 11602">
          <path id="Caminho_11326" data-name="Caminho 11326" d="M271.808,983.359a31.2,31.2,0,0,0,3.2,1.28c.268.089.387-.343.119-.432a29.151,29.151,0,0,1-3.1-1.236c-.268-.119-.491.268-.223.387Z" transform="translate(-271.687 -982.949)" fill="#161616"/>
        </g>
      </g>
      <g id="Grupo_11605" data-name="Grupo 11605" transform="translate(0 0.819)">
        <g id="Grupo_11604" data-name="Grupo 11604">
          <path id="Caminho_11327" data-name="Caminho 11327" d="M267.378,336.976c-1.608,12.476-2.948,24.981-3.826,37.532-.863,12.491-1.28,25.011-1.012,37.532.149,7.086.506,14.173,1.117,21.23.03.283.476.283.447,0a345.364,345.364,0,0,1-1.087-37.651c.283-12.52,1.146-25.026,2.382-37.5q1.05-10.585,2.427-21.155c.045-.268-.4-.268-.447.015Z" transform="translate(-262.459 -336.762)" fill="#161616"/>
        </g>
      </g>
      <g id="Grupo_11607" data-name="Grupo 11607" transform="translate(4.891 0.693)">
        <g id="Grupo_11606" data-name="Grupo 11606">
          <path id="Caminho_11328" data-name="Caminho 11328" d="M295.594,336.568a10.272,10.272,0,0,1,2.62-.194c.283.015.283-.432,0-.447a11.282,11.282,0,0,0-2.739.208c-.283.06-.164.491.119.432Z" transform="translate(-295.314 -335.915)" fill="#161616"/>
        </g>
      </g>
      <g id="Grupo_11609" data-name="Grupo 11609" transform="translate(114.595 10.14)">
        <g id="Grupo_11608" data-name="Grupo 11608">
          <path id="Caminho_11329" data-name="Caminho 11329" d="M1033.076,399.587q.938,25.9-.119,51.824c-.193,4.839-.447,9.662-.759,14.5-.015.283.432.283.447,0q1.63-25.86,1.25-51.809-.112-7.258-.372-14.515c-.015-.283-.462-.283-.447,0Z" transform="translate(-1032.197 -399.375)" fill="#161616"/>
        </g>
      </g>
      <g id="Grupo_11611" data-name="Grupo 11611" transform="translate(121.399 3.947)">
        <g id="Grupo_11610" data-name="Grupo 11610">
          <path id="Caminho_11330" data-name="Caminho 11330" d="M1079.193,357.987q.893,18.021.878,36.087,0,18.044-.893,36.087-.491,10.205-1.28,20.381c-.015.283.432.283.447,0q1.385-18,1.891-36.043t.119-36.1q-.223-10.205-.715-20.411c-.015-.283-.462-.283-.447,0Z" transform="translate(-1077.898 -357.775)" fill="#161616"/>
        </g>
      </g>
      <g id="Grupo_11613" data-name="Grupo 11613" transform="translate(130.897 1.284)">
        <g id="Grupo_11612" data-name="Grupo 11612">
          <path id="Caminho_11331" data-name="Caminho 11331" d="M1142.16,340.112q1.25,18.736,1.474,37.546.2,18.87-.64,37.71-.469,10.563-1.3,21.111c-.015.283.432.283.447,0q1.429-18.736,1.831-37.532.38-18.848-.283-37.725-.38-10.563-1.087-21.125a.223.223,0,0,0-.447.015Z" transform="translate(-1141.698 -339.887)" fill="#161616"/>
        </g>
      </g>
      <g id="Grupo_11615" data-name="Grupo 11615" transform="translate(112.059 82.047)">
        <g id="Grupo_11614" data-name="Grupo 11614">
          <path id="Caminho_11332" data-name="Caminho 11332" d="M1017.043,882.587a80.244,80.244,0,0,1-1.876,11.583.224.224,0,0,0,.432.119,79.85,79.85,0,0,0,1.891-11.7c.03-.283-.417-.283-.447,0Z" transform="translate(-1015.161 -882.375)" fill="#161616"/>
        </g>
      </g>
      <g id="Grupo_11617" data-name="Grupo 11617" transform="translate(9.982 3.778)">
        <g id="Grupo_11616" data-name="Grupo 11616">
          <path id="Caminho_11333" data-name="Caminho 11333" d="M332.189,356.8a285.514,285.514,0,0,0-2.665,37.725c-.1,12.684.417,25.353,1.191,38.008.432,7.161.938,14.307,1.444,21.468.015.283.462.283.447,0-.893-12.61-1.786-25.22-2.278-37.844-.491-12.595-.566-25.219.164-37.814.417-7.161,1.1-14.322,2.114-21.423.06-.268-.372-.4-.417-.119Z" transform="translate(-329.511 -356.642)" fill="#161616"/>
        </g>
      </g>
      <g id="Grupo_11619" data-name="Grupo 11619" transform="translate(18.998 7.894)">
        <g id="Grupo_11618" data-name="Grupo 11618">
          <path id="Caminho_11334" data-name="Caminho 11334" d="M392.289,384.5c-1.131,12.074-1.891,24.192-2.144,36.326a356.39,356.39,0,0,0,1.042,36.326q.826,10.071,2.337,20.054c.045.283.476.164.432-.119a307.866,307.866,0,0,1-3.245-36.251c-.387-11.97-.164-23.969.491-35.924q.558-10.205,1.533-20.4c.03-.3-.417-.3-.447-.015Z" transform="translate(-390.066 -384.287)" fill="#161616"/>
        </g>
      </g>
      <g id="Grupo_11621" data-name="Grupo 11621" transform="translate(27.204 11.449)">
        <g id="Grupo_11620" data-name="Grupo 11620">
          <path id="Caminho_11335" data-name="Caminho 11335" d="M447.781,408.376a312.5,312.5,0,0,0-2.531,33.973,316.925,316.925,0,0,0,1.161,34.048q.849,9.468,2.248,18.863c.045.283.476.164.432-.119a313.8,313.8,0,0,1-2.754-67.783q.648-9.513,1.876-19c.06-.268-.387-.268-.432.015Z" transform="translate(-445.188 -408.162)" fill="#161616"/>
        </g>
      </g>
      <path id="Caminho_11336" data-name="Caminho 11336" d="M1035.926,335.688a125.315,125.315,0,0,1,3.439,23.507,127.766,127.766,0,0,1-8.8,52.776q-4.891,7.838-9.766,15.677a43.568,43.568,0,0,0,13.741,3.439,42.663,42.663,0,0,0,10.3-.417c.03-.655.521-10.615.551-11.27,1.623-33.363,1.727-35.641,1.786-37.934a317.726,317.726,0,0,0-1.37-39.452q-.826-4.265-1.653-8.516C1041.434,334.215,1038.68,334.944,1035.926,335.688Z" transform="translate(-907.902 -333.167)" fill="#3f3f3f" opacity="0.12"/>
      <path id="Caminho_11337" data-name="Caminho 11337" d="M304.593,346.032c-.387,1.623-.968,4.049-1.652,7.012-3.037,13.22-5.27,22.942-6.461,31.889-2.114,15.766-4.154,31.041,4.541,43.576a35.305,35.305,0,0,0,7.146,7.563,26.949,26.949,0,0,1-6.6,1.653,28.369,28.369,0,0,1-15.811-2.888c-1.072-9.87-1.816-20.441-2.054-31.621a367.33,367.33,0,0,1,4.541-66.116Q296.4,341.566,304.593,346.032Z" transform="translate(-280.469 -336.231)" fill="#3f3f3f" opacity="0.13"/>
    </g>
    <g id="cat" transform="translate(169.143 91.386)">
      <path id="Caminho_11338" data-name="Caminho 11338" d="M307.769,276.52c-.194.149-.045.729.223,1.727.1.387.208.685.268.878-.119.8-.223,1.608-.342,2.412a2.742,2.742,0,0,0-2.218,1.891,8.429,8.429,0,0,1,1.682.342,9.085,9.085,0,0,1,2.144,1,1.133,1.133,0,0,0,.268.774,1.067,1.067,0,0,0,.61.268c.536.089,1.176.208,1.995.387.357.208.953.551,1.682.953,2.471,1.34,3.365,1.563,5.836,2.873,1.593.849,1.459.878,2.576,1.414a25.48,25.48,0,0,0,4.183,1.608,6.788,6.788,0,0,0,1.459-2.65,6.576,6.576,0,0,0,.223-2.5,1.9,1.9,0,0,0,1.117.223c1.191-.134,1.95-1.489,2.188-2.456a5.3,5.3,0,0,0-.149-2.382c-.372-2.233-.7-4.228.223-5.494.774-1.057,2.367-1.548,3.647-2.963.119-.134.342-.387.268-.506-.134-.223-1.176.164-1.682.387a6.54,6.54,0,0,0-3.528,3.841,24.43,24.43,0,0,0-.149,3.871c-.015,1.682.015,2.635-.655,3.186a1.586,1.586,0,0,1-1.31.342c-.685-.149-1.012-.819-1.31-1.265a7.2,7.2,0,0,0-3.231-2.337,15.471,15.471,0,0,0-3.8-1.117c-1.727-.372-2.248-.328-2.992-.878a5.375,5.375,0,0,1-1.533-1.995,7,7,0,0,1-.774-2.233c-.089-.61-.074-1.042-.223-1.072-.268-.06-.4,1.176-1.31,1.608-.551.268-.908.015-1.876.045a5.55,5.55,0,0,0-2.144.506C308.871,277.011,308.037,276.326,307.769,276.52Z" transform="translate(-305.486 -274.249)"/>
      <g id="Grupo_11623" data-name="Grupo 11623" transform="translate(2.252 2.271)">
        <g id="Grupo_11622" data-name="Grupo 11622">
          <path id="Caminho_11339" data-name="Caminho 11339" d="M319.865,294.4a4.072,4.072,0,0,1,4.392-4.436c2.337.238,3.886,3.082,3.811,5.211-.015.283.432.283.447,0,.074-2.352-1.682-5.449-4.258-5.657a4.515,4.515,0,0,0-4.838,4.883c.045.268.491.283.447,0Z" transform="translate(-319.386 -289.503)"/>
        </g>
      </g>
      <g id="Grupo_11625" data-name="Grupo 11625" transform="translate(2.658 7.572)">
        <g id="Grupo_11624" data-name="Grupo 11624">
          <path id="Caminho_11340" data-name="Caminho 11340" d="M322.141,326.258a4.95,4.95,0,0,0,4.9,2.754,4.409,4.409,0,0,0,3.722-3.618c.045-.283-.387-.4-.432-.119a3.948,3.948,0,0,1-3.35,3.29,4.488,4.488,0,0,1-4.451-2.531c-.134-.253-.521-.03-.387.223Z" transform="translate(-322.113 -325.114)"/>
        </g>
      </g>
      <g id="Grupo_11627" data-name="Grupo 11627" transform="translate(3.829 9.287)">
        <g id="Grupo_11626" data-name="Grupo 11626">
          <path id="Caminho_11341" data-name="Caminho 11341" d="M330.447,338.217c-.045-.566,1.563-.8,1.965-.893a10.138,10.138,0,0,1,2.218-.253,7.3,7.3,0,0,1,3.886,1.087c.238.149.476-.238.223-.387a8.1,8.1,0,0,0-5.047-1.1,12.047,12.047,0,0,0-2.71.581c-.476.164-1.042.372-1,.968.03.283.491.283.462,0Z" transform="translate(-329.983 -336.629)"/>
        </g>
      </g>
      <g id="Grupo_11629" data-name="Grupo 11629" transform="translate(10.641 5.328)">
        <g id="Grupo_11628" data-name="Grupo 11628">
          <path id="Caminho_11342" data-name="Caminho 11342" d="M375.794,310.436c.938,1.131,2.456,1.4,3.811,1.7a16.555,16.555,0,0,1,5.24,1.787,6.207,6.207,0,0,1,1.3,9.409c-.194.208.119.536.313.313a6.639,6.639,0,0,0-.015-8.977,9.829,9.829,0,0,0-4.779-2.5c-1.772-.461-4.317-.536-5.568-2.054-.164-.208-.476.1-.3.327Z" transform="translate(-375.741 -310.04)"/>
        </g>
      </g>
      <g id="Grupo_11631" data-name="Grupo 11631" transform="translate(16.529 12.449)">
        <g id="Grupo_11630" data-name="Grupo 11630">
          <path id="Caminho_11343" data-name="Caminho 11343" d="M419.872,358.934a2.7,2.7,0,0,0-3.2-.849c-1.414.581-1.489,2.322-1.325,3.647.03.283.476.283.447,0-.134-1.042-.149-2.65.923-3.171a2.245,2.245,0,0,1,2.754.61c.179.223.566,0,.4-.238Z" transform="translate(-415.285 -357.873)"/>
        </g>
      </g>
      <g id="Grupo_11633" data-name="Grupo 11633" transform="translate(14.097 15.145)">
        <g id="Grupo_11632" data-name="Grupo 11632">
          <path id="Caminho_11344" data-name="Caminho 11344" d="M401.83,376.935a3.089,3.089,0,0,0-2.724-.878.219.219,0,0,0-.149.268c.268,1.042,1.906,1.474,2.769,1.846a40.122,40.122,0,0,0,4.049,1.5c.268.089.387-.342.119-.432-1.1-.342-2.174-.715-3.245-1.161-.581-.238-1.146-.491-1.712-.759-.506-.238-1.414-.521-1.563-1.117-.045.089-.1.179-.149.268a2.7,2.7,0,0,1,2.367.834c.238.194.461-.194.238-.372Z" transform="translate(-398.949 -375.979)"/>
        </g>
      </g>
      <g id="Grupo_11635" data-name="Grupo 11635" transform="translate(3.858 10.496)">
        <g id="Grupo_11634" data-name="Grupo 11634">
          <path id="Caminho_11345" data-name="Caminho 11345" d="M330.208,345.087c.581.953,1.757,1.117,2.784,1.265a17.949,17.949,0,0,0,4.556.06c.283-.03.283-.476,0-.447a17.717,17.717,0,0,1-3.662.045c-1.027-.1-2.68-.164-3.305-1.146-.134-.253-.521-.03-.372.223Z" transform="translate(-330.175 -344.752)"/>
        </g>
      </g>
      <g id="Grupo_11637" data-name="Grupo 11637" transform="translate(0 7.243)">
        <g id="Grupo_11636" data-name="Grupo 11636">
          <path id="Caminho_11346" data-name="Caminho 11346" d="M304.685,324.969a2.077,2.077,0,0,1,2.114-1.623,2.545,2.545,0,0,1-.208-.164,4.859,4.859,0,0,0,.328,1.027c.1.268.536.149.432-.119a8.247,8.247,0,0,1-.328-1.027.223.223,0,0,0-.208-.164,2.537,2.537,0,0,0-2.546,1.95c-.06.283.372.4.417.119Z" transform="translate(-304.262 -322.9)"/>
        </g>
      </g>
      <g id="Grupo_11639" data-name="Grupo 11639" transform="translate(2.065 2.027)">
        <g id="Grupo_11638" data-name="Grupo 11638">
          <path id="Caminho_11347" data-name="Caminho 11347" d="M319.078,290.537a8.246,8.246,0,0,1-.447-1.995c0-.06-.015-.119-.015-.179-.015-.134,0-.119.06.045.134.089.268.194.4.3a4.834,4.834,0,0,1,.61.625c.194.223.506-.1.313-.313-.253-.3-1.31-1.519-1.757-1.042-.223.238-.06.789-.015,1.057a8.624,8.624,0,0,0,.4,1.623c.119.268.551.164.447-.119Z" transform="translate(-318.13 -287.867)"/>
        </g>
      </g>
      <g id="Grupo_11641" data-name="Grupo 11641" transform="translate(7.624 0.789)">
        <g id="Grupo_11640" data-name="Grupo 11640">
          <path id="Caminho_11348" data-name="Caminho 11348" d="M355.9,281.374c.134-.238.268-.476.417-.715a2.954,2.954,0,0,0,.164-.3c.089-.149.089-.283.268-.238.208.045.134.536.134.715,0,.283.015.566.015.849a.224.224,0,0,0,.447,0c0-.462.015-.923-.015-1.385a.732.732,0,0,0-.447-.729.581.581,0,0,0-.655.328c-.253.4-.476.834-.715,1.236a.227.227,0,0,0,.387.238Z" transform="translate(-355.475 -279.55)"/>
        </g>
      </g>
      <g id="Grupo_11643" data-name="Grupo 11643" transform="translate(22.307 0.052)">
        <g id="Grupo_11642" data-name="Grupo 11642">
          <path id="Caminho_11349" data-name="Caminho 11349" d="M454.1,286.9a1.406,1.406,0,0,0,2.233.953c1.3-.8,1.578-2.62,1.414-3.99-.223-1.876-.67-3.618-.03-5.479a4.746,4.746,0,0,1,4.049-3.335c.283-.015.283-.462,0-.447a5.42,5.42,0,0,0-4.779,4.868,14.814,14.814,0,0,0,.3,4.288,4.687,4.687,0,0,1-.372,2.739,2.617,2.617,0,0,1-.819.983c-.551.342-1.5.238-1.563-.566,0-.3-.447-.313-.432-.015Z" transform="translate(-454.098 -274.598)"/>
        </g>
      </g>
      <g id="Grupo_11645" data-name="Grupo 11645" transform="translate(22.529 8.341)">
        <g id="Grupo_11644" data-name="Grupo 11644">
          <path id="Caminho_11350" data-name="Caminho 11350" d="M455.608,335.087c.461,1.236,2.069.685,2.769-.03,1.146-1.161.893-3.1.8-4.57-.015-.283-.461-.283-.447,0a12.5,12.5,0,0,1-.015,2.888,2.51,2.51,0,0,1-.536,1.221c-.327.4-1.757,1.414-2.144.372-.1-.268-.536-.149-.432.119Z" transform="translate(-455.592 -330.275)"/>
        </g>
      </g>
      <g id="Grupo_11647" data-name="Grupo 11647" transform="translate(25.472 0.021)">
        <g id="Grupo_11646" data-name="Grupo 11646">
          <path id="Caminho_11351" data-name="Caminho 11351" d="M479.877,274.408c-1.7.655-3.409,1.578-4.094,3.365-.789,2.055-.223,4.288-.268,6.417a.224.224,0,0,0,.447,0c.045-1.861-.4-3.767.045-5.613.491-2.025,2.174-3.037,3.99-3.737.268-.1.149-.536-.119-.432Z" transform="translate(-475.36 -274.392)"/>
        </g>
      </g>
      <g id="Grupo_11649" data-name="Grupo 11649" transform="translate(25.594 0.268)">
        <g id="Grupo_11648" data-name="Grupo 11648">
          <path id="Caminho_11352" data-name="Caminho 11352" d="M480.231,276.071a7.525,7.525,0,0,0-3.722,3.558,6.183,6.183,0,0,0-.328,2.665c0,1.161.045,2.337.134,3.5.015.283.461.283.447,0-.06-.938-.1-1.861-.119-2.8a8.146,8.146,0,0,1,.223-3.067,7.028,7.028,0,0,1,3.588-3.469c.268-.119.045-.506-.223-.387Z" transform="translate(-476.178 -276.049)"/>
        </g>
      </g>
      <g id="Grupo_11651" data-name="Grupo 11651" transform="translate(3.592 5.246)">
        <g id="Grupo_11650" data-name="Grupo 11650">
          <path id="Caminho_11353" data-name="Caminho 11353" d="M328.4,309.921a.847.847,0,0,0,1.578-.328c.015-.149-.208-.134-.223,0a.622.622,0,0,1-1.161.223.11.11,0,1,0-.194.1Z" transform="translate(-328.388 -309.487)" fill="#fff"/>
        </g>
      </g>
      <g id="Grupo_11653" data-name="Grupo 11653" transform="translate(6.748 4.556)">
        <g id="Grupo_11652" data-name="Grupo 11652">
          <path id="Caminho_11354" data-name="Caminho 11354" d="M349.6,305.393a.883.883,0,0,0,1.653-.432.112.112,0,1,0-.223,0,.658.658,0,0,1-1.236.328.11.11,0,1,0-.194.1Z" transform="translate(-349.588 -304.85)" fill="#fff"/>
        </g>
      </g>
      <g id="Grupo_11655" data-name="Grupo 11655" transform="translate(5.595 5.947)">
        <g id="Grupo_11654" data-name="Grupo 11654">
          <path id="Caminho_11355" data-name="Caminho 11355" d="M342.122,314.328a1.436,1.436,0,0,1-.253,1.221c-.089.119.1.223.194.119a1.728,1.728,0,0,0,.283-1.4c-.045-.134-.268-.074-.223.06Z" transform="translate(-341.846 -314.193)" fill="#fff"/>
        </g>
      </g>
      <g id="Grupo_11657" data-name="Grupo 11657" transform="translate(5.956 5.955)">
        <g id="Grupo_11656" data-name="Grupo 11656">
          <path id="Caminho_11356" data-name="Caminho 11356" d="M344.276,314.362a1.356,1.356,0,0,0,.789,1.34c.134.06.238-.134.119-.194a1.155,1.155,0,0,1-.685-1.146.112.112,0,1,0-.223,0Z" transform="translate(-344.272 -314.25)" fill="#fff"/>
        </g>
      </g>
      <g id="Grupo_11659" data-name="Grupo 11659" transform="translate(2.228 7.148)">
        <g id="Grupo_11658" data-name="Grupo 11658">
          <path id="Caminho_11357" data-name="Caminho 11357" d="M319.326,322.509c1.31-.1,2.144.968,3.022,1.757.1.089.268-.06.164-.164-.923-.834-1.816-1.92-3.186-1.831-.134.015-.134.238,0,.238Z" transform="translate(-319.225 -322.265)" fill="#fff"/>
        </g>
      </g>
      <g id="Grupo_11661" data-name="Grupo 11661" transform="translate(4.606 8.628)">
        <g id="Grupo_11660" data-name="Grupo 11660">
          <path id="Caminho_11358" data-name="Caminho 11358" d="M335.366,333.588a7.415,7.415,0,0,1,5.628-1c.134.03.194-.179.06-.208a7.688,7.688,0,0,0-5.791,1.027c-.134.06-.015.253.1.179Z" transform="translate(-335.202 -332.204)" fill="#fff"/>
        </g>
      </g>
      <g id="Grupo_11663" data-name="Grupo 11663" transform="translate(8.897 10.611)">
        <g id="Grupo_11662" data-name="Grupo 11662">
          <path id="Caminho_11359" data-name="Caminho 11359" d="M364.125,346.967a5.162,5.162,0,0,0,3.752-1.251c.1-.089-.045-.253-.164-.164a4.939,4.939,0,0,1-3.588,1.191.112.112,0,0,0,0,.223Z" transform="translate(-364.025 -345.526)" fill="#fff"/>
        </g>
      </g>
      <g id="Grupo_11665" data-name="Grupo 11665" transform="translate(8.282 1.423)">
        <g id="Grupo_11664" data-name="Grupo 11664">
          <path id="Caminho_11360" data-name="Caminho 11360" d="M360.205,283.864a2.188,2.188,0,0,0-.208,1.8c.045.134.253.074.208-.06a1.941,1.941,0,0,1,.179-1.623.108.108,0,1,0-.179-.119Z" transform="translate(-359.891 -283.805)" fill="#fff"/>
        </g>
      </g>
      <g id="Grupo_11667" data-name="Grupo 11667" transform="translate(2.648 2.656)">
        <g id="Grupo_11666" data-name="Grupo 11666">
          <path id="Caminho_11361" data-name="Caminho 11361" d="M322.1,292.3a1.494,1.494,0,0,1,.67.968c.03.134.238.074.208-.06a1.731,1.731,0,0,0-.774-1.1c-.119-.074-.223.119-.1.194Z" transform="translate(-322.047 -292.088)" fill="#fff"/>
        </g>
      </g>
      <g id="Grupo_11669" data-name="Grupo 11669" transform="translate(10.548 5.051)">
        <g id="Grupo_11668" data-name="Grupo 11668">
          <path id="Caminho_11362" data-name="Caminho 11362" d="M375.143,308.373a3.87,3.87,0,0,0,.983.863c.119.074.238-.119.119-.194a3.6,3.6,0,0,1-.938-.834c-.1-.1-.253.06-.164.164Z" transform="translate(-375.116 -308.176)" fill="#fff"/>
        </g>
      </g>
      <g id="Grupo_11671" data-name="Grupo 11671" transform="translate(16.4 12.147)">
        <g id="Grupo_11670" data-name="Grupo 11670">
          <path id="Caminho_11363" data-name="Caminho 11363" d="M417.786,356.253c-.313-.789-1.816-.253-2.308.06a2.324,2.324,0,0,0-.938,2.665c.045.134.253.074.208-.06a2.111,2.111,0,0,1,.581-2.218,2.246,2.246,0,0,1,.983-.521c.253-.074,1.117-.238,1.251.119.06.149.268.089.223-.045Z" transform="translate(-414.425 -355.843)" fill="#fff"/>
        </g>
      </g>
      <g id="Grupo_11673" data-name="Grupo 11673" transform="translate(13.016 14.887)">
        <g id="Grupo_11672" data-name="Grupo 11672">
          <path id="Caminho_11364" data-name="Caminho 11364" d="M395.371,374.654a5.177,5.177,0,0,0-3.6-.164c-.134.045-.074.253.06.208a4.93,4.93,0,0,1,3.484.164c.134.06.193-.164.06-.208Z" transform="translate(-391.693 -374.243)" fill="#fff"/>
        </g>
      </g>
    </g>
    <g id="girl_waving" transform="translate(207.154 79.871)">
      <g id="legs" transform="translate(18.255 82.202)">
        <path id="Caminho_11365" data-name="Caminho 11365" d="M683.525,755.586c-.61,1.459-.61,2.546-.7,5.345-.1,3.454-.4,6.893-.432,10.332-.03,2.9-.074,7.295-.193,13.012a150.4,150.4,0,0,0,30.773-1.459c-2.144-7.25-3.558-12.535-4.57-16.629a33.7,33.7,0,0,0-3.5-9.29,29.844,29.844,0,0,0-3.335-4.734c-.238-.208-5.493-4.63-11.568-2.546C689.7,749.735,685.282,751.343,683.525,755.586Z" transform="translate(-682.2 -749.059)" fill="#ec615b"/>
        <g id="Grupo_11675" data-name="Grupo 11675" transform="translate(10.066 14.872)">
          <g id="Grupo_11674" data-name="Grupo 11674">
            <path id="Caminho_11366" data-name="Caminho 11366" d="M749.841,849.287c1,1.772,1.995,3.543,2.978,5.315.134.253.521.03.387-.223-1-1.772-1.995-3.543-2.978-5.315-.134-.253-.521-.03-.387.223Z" transform="translate(-749.813 -848.952)" fill="#c64f4f"/>
          </g>
        </g>
        <g id="Grupo_11677" data-name="Grupo 11677" transform="translate(9.923 14.721)">
          <g id="Grupo_11676" data-name="Grupo 11676">
            <path id="Caminho_11367" data-name="Caminho 11367" d="M748.9,848.338a22.01,22.01,0,0,1,4.332,9.692,84.571,84.571,0,0,1,1.355,10.243c.015.283.462.283.447,0a89.328,89.328,0,0,0-1.4-10.526,22.17,22.17,0,0,0-4.407-9.722c-.179-.238-.506.089-.328.313Z" transform="translate(-748.853 -847.942)" fill="#c64f4f"/>
          </g>
        </g>
        <path id="Caminho_11368" data-name="Caminho 11368" d="M773.3,750.5c.521,1.042,1.265,2.576,2.1,4.422,2.427,5.389,4.943,11.076,6.283,18.073a51.173,51.173,0,0,1,.849,12.029c1.251-.06,2.576-.164,3.96-.313s2.71-.328,3.96-.536c-.387-1.31-1.012-3.394-1.712-5.97-1.95-7.206-2.218-9.454-3.886-14.2a30.41,30.41,0,0,0-4.035-8.218,12.864,12.864,0,0,0-4.66-4.273A11.916,11.916,0,0,0,773.3,750.5Z" transform="translate(-759.737 -750.285)" fill="#3f3f3f" opacity="0.19"/>
        <path id="Caminho_11369" data-name="Caminho 11369" d="M749.4,851.7a43.563,43.563,0,0,1,1.325,7.682,44.409,44.409,0,0,1-.774,12.565l5.121-.313a71.517,71.517,0,0,0-.938-8.382c-.938-5.494-1.921-7.533-2.71-8.843A18.9,18.9,0,0,0,749.4,851.7Z" transform="translate(-739.396 -836.419)" fill="#3f3f3f" opacity="0.11"/>
      </g>
      <g id="hand_right" transform="translate(3.299 63.035)">
        <path id="Caminho_11370" data-name="Caminho 11370" d="M588.771,620.64c-.491.328-.789.953-1.37,2.188a19.936,19.936,0,0,0-1.057,2.978c-.983,3.335-.878,2.769-1.221,4.034a56.406,56.406,0,0,0-1.7,8.516,52.836,52.836,0,0,0-.328,7.369,46.293,46.293,0,0,0,1.459,9.826c.923,3.8,2.159,6.952,4.615,13.25.536,1.355.983,2.471,1.3,3.245-.223.03-.581.074-1.012.134-2.248.268-2.561.208-3.469.4-1.161.253-2.2.506-2.605,1.385-.179.4-.253.968-.03,1.161.283.238.834-.3,1.786-.61a4.49,4.49,0,0,1,2.01-.164,10.107,10.107,0,0,0-.744,1.935c-.328,1.131-.581,2.054-.164,2.71.208.328.61.625.938.536.179-.045.342-.208.789-1.385a7.422,7.422,0,0,1,.819-2.01,2.679,2.679,0,0,1,.908-.715,7.477,7.477,0,0,0-.313,1.593,5.013,5.013,0,0,0,0,1.251,2.708,2.708,0,0,0,.878,1.861c.119.089.61.462.908.268.253-.149.179-.566.283-1.906a5.576,5.576,0,0,1,.253-1.623,3.137,3.137,0,0,1,.715-1.117,22.693,22.693,0,0,0-.03,2.62c.06,1.057.164,1.533.506,1.831a.814.814,0,0,0,.789.208c.268-.119.357-.491.432-.953.328-1.742.134-2.248.506-3.126a2.348,2.348,0,0,1,.715-1.057,2.7,2.7,0,0,1,2.218-.208c.715.223.983.61,1.34.447a1.081,1.081,0,0,0,.476-.923c.015-.878-.953-1.548-1.786-2.1a8.289,8.289,0,0,0-1.876-.953,35.176,35.176,0,0,1-2.412-6.208,39.924,39.924,0,0,1-.968-4.451c-.789-4.541-.506-6.283-1.385-10.794-.208-1.087-.417-1.95-.536-2.442.06-.744.164-1.906.313-3.32a57.917,57.917,0,0,1,1.816-10.9c.789-2.665,1.593-4.853,1.593-4.853,1.012-2.724,1.34-3.1,1.221-3.975C594.935,621.831,590.6,619.419,588.771,620.64Z" transform="translate(-582.882 -620.315)" fill="#fff"/>
        <g id="Grupo_11679" data-name="Grupo 11679" transform="translate(0 1.622)">
          <g id="Grupo_11678" data-name="Grupo 11678">
            <path id="Caminho_11371" data-name="Caminho 11371" d="M586.486,631.328a56.32,56.32,0,0,0-4.675,19.324,52.322,52.322,0,0,0,3.007,19.89c1.251,3.677,2.769,7.25,4.317,10.823.119.268.491.03.387-.223-2.68-6.193-5.3-12.476-6.551-19.116a49.707,49.707,0,0,1,.447-19.83,57.94,57.94,0,0,1,3.454-10.63c.1-.268-.268-.506-.387-.238Z" transform="translate(-581.743 -631.211)" fill="#161616"/>
          </g>
        </g>
        <g id="Grupo_11681" data-name="Grupo 11681" transform="translate(7.333 10.089)">
          <g id="Grupo_11680" data-name="Grupo 11680">
            <path id="Caminho_11372" data-name="Caminho 11372" d="M633.963,688.236A59.326,59.326,0,0,0,631,705.819a.224.224,0,0,0,.447,0,59.01,59.01,0,0,1,2.948-17.463c.089-.268-.342-.387-.432-.119Z" transform="translate(-631 -688.085)" fill="#161616"/>
          </g>
        </g>
        <g id="Grupo_11683" data-name="Grupo 11683" transform="translate(5.73 24.797)">
          <g id="Grupo_11682" data-name="Grupo 11682">
            <path id="Caminho_11373" data-name="Caminho 11373" d="M620.274,787.194a13.807,13.807,0,0,1,2.174,6.253c.328,2.248.476,4.526.8,6.774a40.431,40.431,0,0,0,3.886,13.22c.134.253.521.03.387-.223a40.577,40.577,0,0,1-3.93-13.741c-.551-4.154-.387-8.962-2.933-12.506-.164-.223-.551,0-.387.223Z" transform="translate(-620.234 -786.879)" fill="#161616"/>
          </g>
        </g>
        <g id="Grupo_11685" data-name="Grupo 11685" transform="translate(0.047 51.568)">
          <g id="Grupo_11684" data-name="Grupo 11684">
            <path id="Caminho_11374" data-name="Caminho 11374" d="M589.345,966.7a31.769,31.769,0,0,0-4.124.461,4.589,4.589,0,0,0-2.665,1.28c-.387.461-.878,1.563-.03,1.876.372.134.7-.119,1.012-.3a3.252,3.252,0,0,1,2.5-.655.224.224,0,0,0,.119-.432,2.881,2.881,0,0,0-2.129.313c-.208.1-.4.208-.6.328-.119.06-.223.134-.342.208-.134-.238-.283-.476-.417-.715.03-.372.774-.8,1.042-.953a7.345,7.345,0,0,1,2.382-.64c1.087-.164,2.174-.268,3.26-.327a.224.224,0,0,0-.015-.447Z" transform="translate(-582.059 -966.698)" fill="#161616"/>
          </g>
        </g>
        <g id="Grupo_11687" data-name="Grupo 11687" transform="translate(2.928 52.89)">
          <g id="Grupo_11686" data-name="Grupo 11686">
            <path id="Caminho_11375" data-name="Caminho 11375" d="M604.6,975.581a3.412,3.412,0,0,0-2.59,2.084,5.359,5.359,0,0,0-.328,3.975c.417.878,1.444,1.191,1.831.119.238-.67.194-1.4.432-2.069a3.989,3.989,0,0,1,1.548-2.04c.238-.164.015-.551-.223-.387a4.28,4.28,0,0,0-1.563,1.846,5.738,5.738,0,0,0-.4,1.206c-.074.342-.119,2.069-.938,1.563-.461-.283-.506-1.191-.491-1.653a8.077,8.077,0,0,1,.432-2.129,3.042,3.042,0,0,1,2.4-2.084c.3-.045.179-.476-.1-.432Z" transform="translate(-601.413 -975.578)" fill="#161616"/>
          </g>
        </g>
        <g id="Grupo_11689" data-name="Grupo 11689" transform="translate(6.157 53.955)">
          <g id="Grupo_11688" data-name="Grupo 11688">
            <path id="Caminho_11376" data-name="Caminho 11376" d="M624.456,982.774a4.41,4.41,0,0,0-.283,6.044c.491.462,1.251.7,1.385-.164.223-1.444-.357-3.484,1.221-4.347.253-.134.03-.521-.223-.387a2.553,2.553,0,0,0-1.146,1.429,13.858,13.858,0,0,0-.268,2.724c-.06.417-.179.864-.64.432a2.529,2.529,0,0,1-.432-.536,3.271,3.271,0,0,1-.491-1.474c-.1-1.042.164-2.709,1.117-3.335.223-.164,0-.551-.238-.387Z" transform="translate(-623.101 -982.734)" fill="#161616"/>
          </g>
        </g>
        <g id="Grupo_11691" data-name="Grupo 11691" transform="translate(9.196 55.036)">
          <g id="Grupo_11690" data-name="Grupo 11690">
            <path id="Caminho_11377" data-name="Caminho 11377" d="M643.943,990.141a8.041,8.041,0,0,0-.372,3.305c.074.536.387,1.846,1.072,1.98.774.149,1.087-1.221,1.161-1.727.164-1.1-.045-2.427.819-3.275a.221.221,0,1,0-.313-.313c-1.042,1.027-.685,2.516-1,3.826-.1.476-.4,1.191-.893.64a2.425,2.425,0,0,1-.4-1.206,7.845,7.845,0,0,1,.372-3.1c.06-.283-.372-.4-.447-.134Z" transform="translate(-643.513 -989.991)" fill="#161616"/>
          </g>
        </g>
        <g id="Grupo_11693" data-name="Grupo 11693" transform="translate(11.697 51.154)">
          <g id="Grupo_11692" data-name="Grupo 11692">
            <path id="Caminho_11378" data-name="Caminho 11378" d="M661.458,964.377a7.214,7.214,0,0,1,2.471,1.429,2.8,2.8,0,0,1,.789,1.236c.223,1.236-.7.447-1.042.3-.938-.417-2.8-.119-3.335.834-.134.253.253.476.387.223.283-.521,1.057-.655,1.593-.729a2.571,2.571,0,0,1,1.012.015c.357.1.581.417.923.521a.73.73,0,0,0,.938-.67,2.829,2.829,0,0,0-1.057-2.144,7.818,7.818,0,0,0-2.59-1.459c-.238-.089-.342.342-.089.447Z" transform="translate(-660.313 -963.919)" fill="#161616"/>
          </g>
        </g>
        <path id="Caminho_11379" data-name="Caminho 11379" d="M622.517,656.789c-1.712.1-2.739,4.481-3.3,6.908a46.441,46.441,0,0,0-1.1,11.94,69.323,69.323,0,0,0,4.794,23.805c.476,1.34.938,2.68,1.414,4-.268,1.1-.536,2.233-.789,3.409-.327,1.548-.625,3.067-.863,4.526a1.132,1.132,0,0,0,.938-.253,1.948,1.948,0,0,0,.313-1.37c.015-.447.06-2.605,1.027-3.409a2.378,2.378,0,0,1,2.2-.253c.67.253.968.744,1.414.6a1.065,1.065,0,0,0,.625-.849c.149-1.087-1.935-2.2-2.278-2.382a4.567,4.567,0,0,1-1.414-.849,3.371,3.371,0,0,1-.789-1.533c-1.236-4.7-1.846-4.407-2.68-9.811-.625-4.079-.223-3.841-.864-7.086a34.95,34.95,0,0,1-.938-5.211,21.463,21.463,0,0,1,.387-5.374c1.117-6.149,3.26-13.592,3.781-15.364C623.917,657.489,623.262,656.744,622.517,656.789Z" transform="translate(-612.683 -651.357)" fill="#3f3f3f" opacity="0.13"/>
      </g>
      <g id="hand_left" transform="translate(24.837 0)">
        <path id="Caminho_11380" data-name="Caminho 11380" d="M745.976,205.014c-.462-.015-.819.819-.908,1.042a3.382,3.382,0,0,0-.194,1.876s.089.625.387,4.407a15.907,15.907,0,0,1-.134,3.633c-.6,1.638-1.161,2.918-1.548,3.752-1.31,2.8-2.188,3.915-4.02,7.459-.685,1.325-.744,1.533-1.548,3.171-2.01,4.064-3.484,6.61-4.987,9.335-1.325,2.382-3.186,5.881-5.374,10.377a5.415,5.415,0,0,0,.581,4.273,5.721,5.721,0,0,0,6.551,1.95,15.713,15.713,0,0,0,1.489-2.59,17.782,17.782,0,0,0,.908-2.531c.164-.551.819-2.412,2.144-6.163.417-1.161.923-2.546,1.95-5.255,1.563-4.154,2.337-6.223,2.858-7.518,1.176-2.948,2.069-4.987,3.826-8.947.923-2.084,2.055-4.6,3.365-7.459a18.258,18.258,0,0,0,2.918-2.069,21.968,21.968,0,0,0,3.96-4.794c1-1.459,1.757-2.739,1.548-4.02-.03-.179-.1-.7-.387-.774-.357-.1-.8.61-1.3,1.236a13.31,13.31,0,0,1-2.4,2.337,24.759,24.759,0,0,1,1.042-2.456,14.228,14.228,0,0,0,1.429-3.439c.342-1.474.03-1.742-.06-1.816-.4-.3-1.087.268-1.489-.06-.357-.313-.045-1-.328-1.161s-.908.328-1.355.849a6.62,6.62,0,0,0-1.236,2.59,11.058,11.058,0,0,1-1.682,3.171c-.223.03-.521.045-.655-.134-.149-.208.06-.551.253-1.1.045-.134.015-.06.328-1.429.119-.521.342-1.489.521-2.263.253-1.117.372-1.578.134-2.069-.045-.1-.238-.506-.521-.521-.328-.015-.581.506-.774.908-.789,1.623-1.191,2.442-1.3,2.724a33.15,33.15,0,0,0-1.325,4.317,3.629,3.629,0,0,1-.194.8c-.074.194-.119.268-.164.387-.372.834-.06,1.385-.447,1.682-.045.03-.268.194-.447.134s-.283-.313-.387-1.161c-.149-1.161-.06-1.5-.328-2.01C746.512,205.461,746.289,205.029,745.976,205.014Z" transform="translate(-727.294 -197.75)" fill="#fff"/>
        <g id="Grupo_11695" data-name="Grupo 11695" transform="translate(17.387 6.942)">
          <g id="Grupo_11694" data-name="Grupo 11694">
            <path id="Caminho_11381" data-name="Caminho 11381" d="M843.781,250.753a21.326,21.326,0,0,0-.119-3.231,8,8,0,0,1,.045-1.578,5.774,5.774,0,0,1,.194-.878c.149-.432.164-.789.64-.8.447-.015.417.253.491.625a5.669,5.669,0,0,1,.1,1,8.575,8.575,0,0,0,.149,1.385c.1.462.387.849.908.685.268-.089.164-.521-.119-.432-.521.149-.476-1.608-.506-1.906a5.063,5.063,0,0,0-.268-1.414c-.253-.625-.834-.938-1.325-.357a4.962,4.962,0,0,0-.774,3.007c0,1.31.253,2.59.134,3.9-.015.283.432.283.447,0Z" transform="translate(-843.2 -243.538)" fill="#161616"/>
          </g>
        </g>
        <g id="Grupo_11697" data-name="Grupo 11697" transform="translate(20.143)">
          <g id="Grupo_11696" data-name="Grupo 11696">
            <path id="Caminho_11382" data-name="Caminho 11382" d="M862.128,208.086a23.728,23.728,0,0,0,1.4-4.63,20.264,20.264,0,0,1,1.906-4.794,4.455,4.455,0,0,1,.67-1.042c.551-.506.551.462.506.878a22.179,22.179,0,0,1-.536,2.769c-.194.834-.462,1.638-.655,2.471a1.241,1.241,0,0,0,.223,1.221c.194.208.506-.1.313-.313-.372-.4.015-1.206.134-1.638.134-.491.268-.983.372-1.474.208-.908.417-1.831.551-2.769.074-.491.179-1.355-.253-1.727-.372-.313-.744-.015-1,.283a15.247,15.247,0,0,0-2.293,4.779c-.61,1.891-.8,4-1.727,5.776a.22.22,0,0,0,.387.208Z" transform="translate(-861.713 -196.906)" fill="#161616"/>
          </g>
        </g>
        <g id="Grupo_11699" data-name="Grupo 11699" transform="translate(23.965 0.713)">
          <g id="Grupo_11698" data-name="Grupo 11698">
            <path id="Caminho_11383" data-name="Caminho 11383" d="M887.6,209.082c.447.045.61-.283.819-.64.328-.566.625-1.161.908-1.742a34.224,34.224,0,0,1,1.608-3.424,2.607,2.607,0,0,1,.566-.715.671.671,0,0,1,.774-.194,3,3,0,0,1,.074.625,5.975,5.975,0,0,1-.476,2.144c-.506,1.355-1.072,2.695-1.623,4.049-.1.268.328.387.432.119.313-.774,3.528-7.563,1.429-7.608-.417-.015-.893.506-1.131.789a7.033,7.033,0,0,0-.983,1.638c-.313.7-.6,1.4-.923,2.084-.193.417-.417.849-.625,1.251-.134.268-.462,1.191-.834,1.161-.3-.015-.3.432-.015.462Z" transform="translate(-887.387 -201.698)" fill="#161616"/>
          </g>
        </g>
        <g id="Grupo_11701" data-name="Grupo 11701" transform="translate(27.849 1.738)">
          <g id="Grupo_11700" data-name="Grupo 11700">
            <path id="Caminho_11384" data-name="Caminho 11384" d="M915.072,209.462c.164-.863,1.1-.268,1.221.283a2.516,2.516,0,0,1-.223,1.355c-.223.655-.476,1.3-.744,1.921a29.252,29.252,0,0,1-1.816,3.528.223.223,0,0,0,.387.223,31.133,31.133,0,0,0,1.712-3.275,12.845,12.845,0,0,0,1.117-3.1,1.521,1.521,0,0,0-.834-1.772.968.968,0,0,0-1.251.729c-.045.268.387.387.432.1Z" transform="translate(-913.475 -208.581)" fill="#161616"/>
          </g>
        </g>
        <g id="Grupo_11703" data-name="Grupo 11703" transform="translate(23.71 6.312)">
          <g id="Grupo_11702" data-name="Grupo 11702">
            <path id="Caminho_11385" data-name="Caminho 11385" d="M890.544,243.1c.566-.64,1.117-1.28,1.682-1.921a11.727,11.727,0,0,1,.893-1.012c.1-.089.208-.164.3-.253.253.089.506.179.774.268.074.134-.1.521-.149.64a18.025,18.025,0,0,1-1.92,4,19.162,19.162,0,0,1-6.342,6.163c-.253.149-.015.536.223.387a19.57,19.57,0,0,0,7.459-8.024,15.454,15.454,0,0,0,1.042-2.516c.149-.506.238-1.191-.342-1.459s-1.161.253-1.519.625c-.849.878-1.623,1.861-2.427,2.784-.179.208.134.521.328.313Z" transform="translate(-885.672 -239.305)" fill="#161616"/>
          </g>
        </g>
        <g id="Grupo_11705" data-name="Grupo 11705" transform="translate(0 13.483)">
          <g id="Grupo_11704" data-name="Grupo 11704">
            <path id="Caminho_11386" data-name="Caminho 11386" d="M743.994,287.687a17.5,17.5,0,0,1-.015,4.139,13.174,13.174,0,0,1-1.414,3.826c-1.265,2.471-2.59,4.913-3.886,7.369q-3.886,7.369-7.771,14.724c-1.489,2.814-2.977,5.642-4.466,8.456-.134.253.253.476.387.223,5.345-10.138,10.794-20.232,16.049-30.43a14.017,14.017,0,0,0,1.459-3.767,16.562,16.562,0,0,0,.074-4.541.208.208,0,1,0-.417,0Z" transform="translate(-726.413 -287.475)" fill="#161616"/>
          </g>
        </g>
        <g id="Grupo_11707" data-name="Grupo 11707" transform="translate(7.747 17.783)">
          <g id="Grupo_11706" data-name="Grupo 11706">
            <path id="Caminho_11387" data-name="Caminho 11387" d="M794.49,316.464a311.943,311.943,0,0,0-12.58,30.877c-1.072,3.052-2.144,6.1-3.439,9.067-.119.268.268.491.387.223,2.218-5.047,3.841-10.332,5.747-15.483q2.925-7.95,6.312-15.736c1.28-2.933,2.59-5.836,3.96-8.724.119-.253-.268-.476-.387-.223Z" transform="translate(-778.449 -316.352)" fill="#161616"/>
          </g>
        </g>
        <path id="Caminho_11388" data-name="Caminho 11388" d="M781.262,213.287c-.61-.089-1.429,2.412-1.906,3.662-1.444,3.841-2.665,4.288-5.762,9.5a69.848,69.848,0,0,0-4.317,8.575Q762.131,250.074,755,265.14c1.161,1.414,2.308,2.844,3.469,4.258.581-1.652,1.429-4.079,2.486-7.012,1.921-5.285,4.407-12.089,7.92-20.366,1.4-3.275,3.335-7.7,5.821-12.893a20.968,20.968,0,0,0,2.68-2.025,16.581,16.581,0,0,0,4.511-5.568,13.671,13.671,0,0,0,1.176-3.8,1.3,1.3,0,0,0-.789-.134c-.536.1-.819.625-1.042.983-.863,1.325-2.129,2.2-2.293,2.1-.089-.074.164-.506.849-1.906,1.4-2.873.819-2.114,1.37-3.082a2.446,2.446,0,0,0,.521-1.638C781.679,213.793,781.515,213.331,781.262,213.287Z" transform="translate(-750.744 -210.846)" fill="#3f3f3f" opacity="0.1"/>
        <path id="Caminho_11389" data-name="Caminho 11389" d="M788.694,281.5c-.744.476-1.8,1.176-3.007,2.1a26.387,26.387,0,0,0-4.124,3.6,16.082,16.082,0,0,0-2.888,4.972c-4.094,10.451-8.962,21.8-10.347,24.952-.759,1.727-1.95,4.332-3.528,7.459.715.938,1.444,1.876,2.159,2.814,2.054-6.268,4.422-12.833,7.131-19.637,2.918-7.31,5.94-14.143,8.977-20.5a19.6,19.6,0,0,0,5.627-5.762Z" transform="translate(-759.085 -268.906)" fill="#3f3f3f" opacity="0.13"/>
      </g>
      <g id="torso" transform="translate(7.825 50.474)">
        <path id="Caminho_11390" data-name="Caminho 11390" d="M620.248,541.636a16.628,16.628,0,0,0-3.052,2.635,19.024,19.024,0,0,0-2.695,3.945c-.491.878-.849,1.653-1.1,2.218.387.744,1.012,1.891,1.876,3.26a72.366,72.366,0,0,0,4.779,6.372c.863,1.1,2.114,2.754,3.6,4.838q.357,1.675.625,3.528a50.071,50.071,0,0,1,.491,7,8.723,8.723,0,0,0,2.9,2.069,9.473,9.473,0,0,0,5.538.551,12.538,12.538,0,0,0,5.255-2.218,16.259,16.259,0,0,0,4.437-4.362c-.194-2.322-.447-4.719-.759-7.206q-.4-3.171-.893-6.163a33.965,33.965,0,0,0-.685-6.163,25.27,25.27,0,0,0-2.427-7.339,22.679,22.679,0,0,0-5.121-6.506,23.355,23.355,0,0,0-2.069-1.593,33.241,33.241,0,0,1-5.33,2.769C623.241,540.252,622.124,540.4,620.248,541.636Z" transform="translate(-613.213 -536.417)" fill="#fff"/>
        <g id="Grupo_11709" data-name="Grupo 11709" transform="translate(0 4.897)">
          <g id="Grupo_11708" data-name="Grupo 11708">
            <path id="Caminho_11391" data-name="Caminho 11391" d="M612.568,578.015a14.693,14.693,0,0,1,2.844-4.824,18.712,18.712,0,0,1,4.035-3.93c.238-.164.015-.551-.223-.387a19.072,19.072,0,0,0-4.154,4.035,14.747,14.747,0,0,0-2.918,4.972c-.074.3.357.4.417.134Z" transform="translate(-612.142 -568.834)" fill="#161616"/>
          </g>
        </g>
        <g id="Grupo_11711" data-name="Grupo 11711" transform="translate(0.064 13.892)">
          <g id="Grupo_11710" data-name="Grupo 11710">
            <path id="Caminho_11392" data-name="Caminho 11392" d="M612.609,629.587a87.813,87.813,0,0,0,10.823,14.992c.194.208.506-.1.313-.313A87.529,87.529,0,0,1,613,629.364a.223.223,0,0,0-.387.223Z" transform="translate(-612.575 -629.252)" fill="#161616"/>
          </g>
        </g>
        <g id="Grupo_11713" data-name="Grupo 11713" transform="translate(12.368)">
          <g id="Grupo_11712" data-name="Grupo 11712">
            <path id="Caminho_11393" data-name="Caminho 11393" d="M695.541,539a18.242,18.242,0,0,1,5.449-2.62.224.224,0,0,0-.119-.432,18.747,18.747,0,0,0-5.553,2.665c-.238.164-.015.551.223.387Z" transform="translate(-695.216 -535.942)" fill="#161616"/>
          </g>
        </g>
        <g id="Grupo_11715" data-name="Grupo 11715" transform="translate(17.677 0.133)">
          <g id="Grupo_11714" data-name="Grupo 11714">
            <path id="Caminho_11394" data-name="Caminho 11394" d="M730.971,537.261c7.116,4.958,10.168,13.652,9.826,22.063-.015.283.432.283.447,0,.357-8.59-2.8-17.4-10.049-22.45-.223-.164-.447.223-.223.387Z" transform="translate(-730.879 -536.834)" fill="#161616"/>
          </g>
        </g>
        <g id="Grupo_11717" data-name="Grupo 11717" transform="translate(9.93 27.991)">
          <g id="Grupo_11716" data-name="Grupo 11716">
            <path id="Caminho_11395" data-name="Caminho 11395" d="M678.867,724.3a15.666,15.666,0,0,1,1.027,5.3,52.389,52.389,0,0,1,.238,5.3.224.224,0,0,0,.447,0,48.454,48.454,0,0,0-.3-5.881,15.187,15.187,0,0,0-1.027-4.958c-.134-.253-.506-.03-.387.238Z" transform="translate(-678.844 -723.955)" fill="#161616"/>
          </g>
        </g>
        <g id="Grupo_11719" data-name="Grupo 11719" transform="translate(11.448 34.675)">
          <g id="Grupo_11718" data-name="Grupo 11718">
            <path id="Caminho_11396" data-name="Caminho 11396" d="M689.094,773.206c2.233,2.739,6.044,3.513,9.364,2.665a14.95,14.95,0,0,0,5.092-2.516,12.162,12.162,0,0,0,3.856-4.169c.134-.253-.253-.476-.387-.223a11.782,11.782,0,0,1-3.707,4,14.914,14.914,0,0,1-4.749,2.412c-3.245.908-6.982.208-9.171-2.486-.164-.223-.476.089-.3.313Z" transform="translate(-689.041 -768.852)" fill="#161616"/>
          </g>
        </g>
        <g id="Grupo_11721" data-name="Grupo 11721" transform="translate(27.756 21.672)">
          <g id="Grupo_11720" data-name="Grupo 11720">
            <path id="Caminho_11397" data-name="Caminho 11397" d="M798.581,681.794a122.275,122.275,0,0,1,1.7,13.131c.015.283.462.283.447,0a127.934,127.934,0,0,0-1.712-13.25c-.045-.283-.476-.164-.432.119Z" transform="translate(-798.578 -681.514)" fill="#161616"/>
          </g>
        </g>
        <path id="Caminho_11398" data-name="Caminho 11398" d="M701.2,539.393a39.856,39.856,0,0,1,5.806,9.1,44.846,44.846,0,0,1,3.737,15.632,64.047,64.047,0,0,1-.149,13.652,15.7,15.7,0,0,0,6.982-5.806c-.491-4.154-.983-8.322-1.474-12.476a28.1,28.1,0,0,0-.953-8.069,27.7,27.7,0,0,0-5.583-10.719,26.748,26.748,0,0,0-3.737-3.6C704.282,537.874,702.748,538.633,701.2,539.393Z" transform="translate(-687.942 -536.928)" fill="#3f3f3f" opacity="0.13"/>
        <path id="Caminho_11399" data-name="Caminho 11399" d="M775.335,587.489c-.268.074.357,2.5.953,6.089a96.857,96.857,0,0,1,1.1,10.719,53.217,53.217,0,0,1-1.608,14.9,14.06,14.06,0,0,0,2.5-1.608,13.389,13.389,0,0,0,2.427-2.576c-.194-6-.7-9.111-1.176-10.868a22.9,22.9,0,0,1-.521-2.278c-.357-2.114-.179-3.022-.372-4.779a19.689,19.689,0,0,0-.953-4.035C776.9,590.482,775.633,587.4,775.335,587.489Z" transform="translate(-750.985 -579.814)" fill="#3f3f3f" opacity="0.14"/>
      </g>
      <g id="head" transform="translate(0 27.705)">
        <path id="Caminho_11400" data-name="Caminho 11400" d="M574.421,386.5a13.909,13.909,0,0,0-7.027,9.766,1.8,1.8,0,0,0-1.325.313,2.06,2.06,0,0,0-.462,2.337,3.69,3.69,0,0,0,.566.819,2.65,2.65,0,0,0,1,.908,1.728,1.728,0,0,0,1.072.06,14.52,14.52,0,0,0,.834,1.965,11.445,11.445,0,0,0,2.888,3.826,10.175,10.175,0,0,0,2.144,1.355,4.989,4.989,0,0,1,1.087,2.739,5.684,5.684,0,0,1-3.126,5.077c-2.769,1.474-5.776,0-6.878-.551a9.971,9.971,0,0,1-4.838-5.24c-1.519-4.094.461-8.188,1.638-10.63s1.742-2.293,2.65-4.69c1.206-3.171.566-4.288,1.95-6.714a7.835,7.835,0,0,1,3.9-3.752,7.147,7.147,0,0,1,4.526-.149,6.233,6.233,0,0,1,3.2-.938c3.394,0,5.568,3.216,6.089,3.99,1.548,2.278.729,2.978,2.114,6.178,1.742,4.035,3.439,3.8,5,7.578.759,1.846,2.025,4.9.625,7.816a8.11,8.11,0,0,1-5.151,3.99,6.626,6.626,0,0,1-4.839-.387c-.194-.1-2.754-1.5-2.963-3.9a5.049,5.049,0,0,1,.238-1.876,5.512,5.512,0,0,1,1.012-1.8,11.3,11.3,0,0,0,1.95-5.151,2.5,2.5,0,0,0,1.087-.313,2.676,2.676,0,0,0,1.251-2.427c-.015-.208-.074-1.4-.938-1.8a1.517,1.517,0,0,0-.938-.074C579.989,392.022,577.205,389.268,574.421,386.5Z" transform="translate(-559.769 -383)" fill="#5222d0"/>
        <path id="Caminho_11401" data-name="Caminho 11401" d="M607.721,406.4a15.352,15.352,0,0,0-3.528,2.829,14.545,14.545,0,0,0-3.365,6.029,8.379,8.379,0,0,0-.208.968,1.239,1.239,0,0,0-.908,0,1.6,1.6,0,0,0-.744,1.28,2.588,2.588,0,0,0,.268,1.653,2.191,2.191,0,0,0,1.072,1.176,1.93,1.93,0,0,0,1.221.1,17.777,17.777,0,0,0,.968,2.129,11.453,11.453,0,0,0,2.62,3.677,8.408,8.408,0,0,0,2.456,1.489,5.5,5.5,0,0,1,.744,1.712,5.3,5.3,0,0,1,.164,1.489,4.417,4.417,0,0,0,2.025.476,4.7,4.7,0,0,0,3.156-1.385,13.45,13.45,0,0,1-.64-3.1c-.045-.551-.06-1.072-.06-1.548a8.741,8.741,0,0,0,1.489-2.129,9.19,9.19,0,0,0,.968-4,2.066,2.066,0,0,0,1.072-.1,2.168,2.168,0,0,0,1.072-1.117,3.253,3.253,0,0,0,.1-2.62c-.134-.283-.357-.8-.8-.849a.945.945,0,0,0-.7.328c-.61-.729-1.757-2.084-3.365-3.945a19.271,19.271,0,0,0-3.737-3.677C608.525,406.876,608.048,406.594,607.721,406.4Z" transform="translate(-593.069 -402.916)" fill="#fff"/>
        <path id="Caminho_11402" data-name="Caminho 11402" d="M644.083,502.791c-.149.342.551.953.878,1.206a3.164,3.164,0,0,0,1.682.6,3.373,3.373,0,0,0,2.278-.566,2.7,2.7,0,0,0,1.087-1.4c.164-.581.119-1.385-.194-1.519-.238-.089-.461.208-.968.566a5.884,5.884,0,0,1-2.605.878C644.9,502.761,644.232,502.493,644.083,502.791Z" transform="translate(-631.485 -483.511)"/>
        <g id="Grupo_11723" data-name="Grupo 11723" transform="translate(7.87 15.077)">
          <g id="Grupo_11722" data-name="Grupo 11722">
            <path id="Caminho_11403" data-name="Caminho 11403" d="M612.451,485.038a16.05,16.05,0,0,0,2.829,6.238c1.266,1.623,3.141,3.186,5.33,2.978,2.025-.194,3.677-1.772,4.749-3.379a10.906,10.906,0,0,0,1.816-6.387c-.015-.283-.462-.283-.447,0a10.511,10.511,0,0,1-1.563,5.851c-1.027,1.653-2.724,3.394-4.794,3.484-2.188.089-3.99-1.7-5.151-3.365a16.376,16.376,0,0,1-2.352-5.553c-.06-.268-.491-.149-.417.134Z" transform="translate(-612.442 -484.275)" fill="#161616"/>
          </g>
        </g>
        <g id="Grupo_11725" data-name="Grupo 11725" transform="translate(14.172 24.513)">
          <g id="Grupo_11724" data-name="Grupo 11724">
            <path id="Caminho_11404" data-name="Caminho 11404" d="M654.809,547.987a5.6,5.6,0,0,1,.938,3.141.224.224,0,0,0,.447,0,6.138,6.138,0,0,0-1-3.365.223.223,0,0,0-.387.223Z" transform="translate(-654.775 -547.652)" fill="#161616"/>
          </g>
        </g>
        <g id="Grupo_11727" data-name="Grupo 11727" transform="translate(15.24 26.72)">
          <g id="Grupo_11726" data-name="Grupo 11726">
            <path id="Caminho_11405" data-name="Caminho 11405" d="M662.064,563.926a4.187,4.187,0,0,0,5.4-1.131c.179-.223-.208-.447-.387-.223a3.72,3.72,0,0,1-4.794.968c-.253-.134-.476.253-.223.387Z" transform="translate(-661.952 -562.479)" fill="#161616"/>
          </g>
        </g>
        <g id="Grupo_11729" data-name="Grupo 11729" transform="translate(19.639 22.629)">
          <g id="Grupo_11728" data-name="Grupo 11728">
            <path id="Caminho_11406" data-name="Caminho 11406" d="M691.5,535.223a13.024,13.024,0,0,0,.655,3.99c.089.268.521.149.432-.119a13.173,13.173,0,0,1-.64-3.871.223.223,0,1,0-.447,0Z" transform="translate(-691.5 -535)" fill="#161616"/>
          </g>
        </g>
        <g id="Grupo_11731" data-name="Grupo 11731" transform="translate(5.632 13.075)">
          <g id="Grupo_11730" data-name="Grupo 11730">
            <path id="Caminho_11407" data-name="Caminho 11407" d="M600.1,475c-.194.208-.67.134-.893.015a1.9,1.9,0,0,1-.476-.357,2.847,2.847,0,0,1-.685-1c-.3-.7-.432-2.71.893-2.352a.224.224,0,0,0,.119-.432c-1.638-.432-1.891,1.742-1.474,2.829.328.878,1.831,2.695,2.844,1.608.179-.208-.134-.521-.328-.313Z" transform="translate(-597.411 -470.824)" fill="#161616"/>
          </g>
        </g>
        <g id="Grupo_11733" data-name="Grupo 11733" transform="translate(22.172 11.472)">
          <g id="Grupo_11732" data-name="Grupo 11732">
            <path id="Caminho_11408" data-name="Caminho 11408" d="M709.628,460.632c.179-.6.953.551,1.042.759a3.042,3.042,0,0,1,.164,1.5,1.743,1.743,0,0,1-2.04,1.7.224.224,0,0,0-.119.432c1.8.462,2.769-1.414,2.605-2.948a2.463,2.463,0,0,0-.983-1.891.725.725,0,0,0-1.1.313.226.226,0,0,0,.432.134Z" transform="translate(-708.513 -460.061)" fill="#161616"/>
          </g>
        </g>
        <g id="Grupo_11735" data-name="Grupo 11735" transform="translate(9.503 6.756)">
          <g id="Grupo_11734" data-name="Grupo 11734">
            <path id="Caminho_11409" data-name="Caminho 11409" d="M623.828,430.51a3.168,3.168,0,0,1,2.4-1.7c.283-.045.164-.476-.119-.432a3.582,3.582,0,0,0-2.665,1.906c-.134.253.253.476.387.223Z" transform="translate(-623.413 -428.378)" fill="#161616"/>
          </g>
        </g>
        <g id="Grupo_11737" data-name="Grupo 11737" transform="translate(16.515 6.076)">
          <g id="Grupo_11736" data-name="Grupo 11736">
            <path id="Caminho_11410" data-name="Caminho 11410" d="M670.794,424.332a2.723,2.723,0,0,1,3.067,1.459c.134.253.506.03.387-.223a3.164,3.164,0,0,0-3.573-1.667.224.224,0,0,0,.119.432Z" transform="translate(-670.514 -423.812)" fill="#161616"/>
          </g>
        </g>
        <g id="Grupo_11739" data-name="Grupo 11739" transform="translate(13.547 8.149)">
          <g id="Grupo_11738" data-name="Grupo 11738">
            <path id="Caminho_11411" data-name="Caminho 11411" d="M650.581,438.013a17.338,17.338,0,0,1,.194,4.809,3.4,3.4,0,0,0-.074,1.682,6.065,6.065,0,0,0,1.28,1.414c.194.208.521-.1.313-.313-.268-.283-.536-.551-.8-.834a1.061,1.061,0,0,1-.372-1.191c.074-.566.149-1.146.179-1.727a17.488,17.488,0,0,0-.283-3.945c-.045-.3-.476-.179-.432.1Z" transform="translate(-650.578 -437.735)" fill="#161616"/>
          </g>
        </g>
        <g id="Grupo_11741" data-name="Grupo 11741" transform="translate(10.956 10.085)">
          <g id="Grupo_11740" data-name="Grupo 11740">
            <path id="Caminho_11412" data-name="Caminho 11412" d="M633.893,452.907a1.892,1.892,0,0,1-.3-1.161c0-.089.06-.476.134-.491a2.791,2.791,0,0,1,.134.581,4.008,4.008,0,0,1,.045.6c0,.06-.015.551-.015.253-.015-.432.015-.863.03-1.3-.149.015-.3.045-.432.06a8.728,8.728,0,0,1,.119,1.4h.447v-.179a.224.224,0,0,0-.447,0v.179a.224.224,0,0,0,.447,0,8.72,8.72,0,0,0-.134-1.519c-.045-.253-.432-.179-.432.06a9.739,9.739,0,0,0-.015,1.474.493.493,0,0,0,.387.476c.744.149.521-1.31.462-1.667-.045-.283-.089-.715-.357-.878a.442.442,0,0,0-.6.208,2.227,2.227,0,0,0,.179,2.114c.1.253.491.03.342-.208Z" transform="translate(-633.175 -450.739)" fill="#161616"/>
          </g>
        </g>
        <g id="Grupo_11743" data-name="Grupo 11743" transform="translate(17.834 9.296)">
          <g id="Grupo_11742" data-name="Grupo 11742">
            <path id="Caminho_11413" data-name="Caminho 11413" d="M680.093,447.607a1.891,1.891,0,0,1-.3-1.161c0-.089.06-.476.134-.491a2.8,2.8,0,0,1,.134.581,4.008,4.008,0,0,1,.045.6c0,.06-.015.551-.015.253-.015-.432.015-.863.03-1.3-.149.015-.3.045-.432.06a8.735,8.735,0,0,1,.119,1.4h.447v-.179a.224.224,0,0,0-.447,0v.179a.224.224,0,0,0,.447,0,8.72,8.72,0,0,0-.134-1.519c-.045-.253-.432-.179-.432.06a9.748,9.748,0,0,0-.015,1.474.493.493,0,0,0,.387.476c.744.149.521-1.31.461-1.667-.045-.283-.089-.715-.357-.878a.442.442,0,0,0-.6.208,2.227,2.227,0,0,0,.179,2.114c.1.268.491.045.342-.208Z" transform="translate(-679.375 -445.439)" fill="#161616"/>
          </g>
        </g>
        <g id="Grupo_11745" data-name="Grupo 11745" transform="translate(9.259 13.175)">
          <g id="Grupo_11744" data-name="Grupo 11744">
            <path id="Caminho_11414" data-name="Caminho 11414" d="M621.987,471.947a.224.224,0,0,0,0-.447.224.224,0,0,0,0,.447Z" transform="translate(-621.775 -471.5)" fill="#161616"/>
          </g>
        </g>
        <g id="Grupo_11747" data-name="Grupo 11747" transform="translate(11.005 13.503)">
          <g id="Grupo_11746" data-name="Grupo 11746">
            <path id="Caminho_11415" data-name="Caminho 11415" d="M633.723,474.147h.06a.223.223,0,0,0,0-.447h-.06a.229.229,0,0,0-.223.223.219.219,0,0,0,.223.223Z" transform="translate(-633.5 -473.7)" fill="#161616"/>
          </g>
        </g>
        <g id="Grupo_11749" data-name="Grupo 11749" transform="translate(9.968 14.873)">
          <g id="Grupo_11748" data-name="Grupo 11748">
            <path id="Caminho_11416" data-name="Caminho 11416" d="M626.755,483.347a.224.224,0,0,0,0-.447.224.224,0,0,0,0,.447Z" transform="translate(-626.537 -482.9)" fill="#161616"/>
          </g>
        </g>
        <g id="Grupo_11751" data-name="Grupo 11751" transform="translate(18.419 12.952)">
          <g id="Grupo_11750" data-name="Grupo 11750">
            <path id="Caminho_11417" data-name="Caminho 11417" d="M683.523,470.447h.06a.223.223,0,0,0,0-.447h-.06a.229.229,0,0,0-.223.223.219.219,0,0,0,.223.223Z" transform="translate(-683.3 -470)" fill="#161616"/>
          </g>
        </g>
        <g id="Grupo_11753" data-name="Grupo 11753" transform="translate(20.067 11.851)">
          <g id="Grupo_11752" data-name="Grupo 11752">
            <path id="Caminho_11418" data-name="Caminho 11418" d="M694.587,463.047a.224.224,0,0,0,0-.447.224.224,0,0,0,0,.447Z" transform="translate(-694.375 -462.6)" fill="#161616"/>
          </g>
        </g>
        <g id="Grupo_11755" data-name="Grupo 11755" transform="translate(19.833 13.056)">
          <g id="Grupo_11754" data-name="Grupo 11754">
            <path id="Caminho_11419" data-name="Caminho 11419" d="M693.023,471.147h.06a.223.223,0,1,0,0-.447h-.06a.229.229,0,0,0-.223.223.24.24,0,0,0,.223.223Z" transform="translate(-692.8 -470.7)" fill="#161616"/>
          </g>
        </g>
        <g id="Grupo_11757" data-name="Grupo 11757" transform="translate(12.013 16.578)">
          <g id="Grupo_11756" data-name="Grupo 11756">
            <path id="Caminho_11420" data-name="Caminho 11420" d="M641.231,497.4c-.238-.342-.625-.834-.462-1.28.194-.506.8-.432,1.206-.372a2.845,2.845,0,0,0,1.37.015,6.289,6.289,0,0,0,1.087-.566c.849-.476,1.846-.521,2.114.6.759,3.052-4.63,3.915-5.464,1.236-.089-.268-.521-.164-.432.119,1.027,3.29,7.4,2.069,6.283-1.578a1.627,1.627,0,0,0-1.31-1.206c-1.072-.1-1.772.968-2.8,1.042-.759.06-1.682-.521-2.293.194-.551.64-.1,1.459.3,2.025.179.238.566.015.4-.223Z" transform="translate(-640.274 -494.352)" fill="#161616"/>
          </g>
        </g>
        <g id="Grupo_11759" data-name="Grupo 11759" transform="translate(12.09 17.24)">
          <g id="Grupo_11758" data-name="Grupo 11758">
            <path id="Caminho_11421" data-name="Caminho 11421" d="M640.808,500.335c.328.908,1.965.625,2.68.521a7.511,7.511,0,0,0,3.677-1.682c.223-.179-.089-.506-.313-.313a6.892,6.892,0,0,1-2.65,1.4c-.432.119-2.71.625-2.948-.03-.119-.283-.551-.164-.447.1Z" transform="translate(-640.792 -498.802)" fill="#161616"/>
          </g>
        </g>
        <g id="Grupo_11761" data-name="Grupo 11761" transform="translate(14.594 22.885)">
          <g id="Grupo_11760" data-name="Grupo 11760">
            <path id="Caminho_11422" data-name="Caminho 11422" d="M657.775,539.14a5.27,5.27,0,0,0,5.047-2.1c.164-.238-.223-.461-.387-.223a4.87,4.87,0,0,1-4.541,1.891.224.224,0,0,0-.119.432Z" transform="translate(-657.614 -536.716)" fill="#161616"/>
          </g>
        </g>
        <g id="Grupo_11763" data-name="Grupo 11763" transform="translate(14.809 23.232)">
          <g id="Grupo_11762" data-name="Grupo 11762">
            <path id="Caminho_11423" data-name="Caminho 11423" d="M659.164,541.263c1.548.968,4.094-.4,4.838-1.876.134-.253-.253-.476-.387-.223-.625,1.251-2.9,2.546-4.228,1.727a.217.217,0,1,0-.223.372Z" transform="translate(-659.052 -539.052)" fill="#161616"/>
          </g>
        </g>
        <path id="Caminho_11424" data-name="Caminho 11424" d="M666.574,447.9a23.89,23.89,0,0,1,.327,2.412c.208,2.739.566,7.325-2.2,10.377a8.659,8.659,0,0,1-4.2,2.471,12.534,12.534,0,0,0,2.635-.372,9.44,9.44,0,0,0,1.34-.432c.06,1.325.1,2.65.164,3.975.506-.328,1-.64,1.5-.968a6.327,6.327,0,0,1-.6-3.439,9.268,9.268,0,0,1,.908-2.739,12.356,12.356,0,0,1,.983-1.757,2,2,0,0,0,.313.953c.908,1.355,3.752,1.489,5.538.328a5.29,5.29,0,0,0,2.04-5.479,6.747,6.747,0,0,1,.863.863c.223.268.8,1.042,1.608,3.767a14.87,14.87,0,0,1,.447,1.712,7.611,7.611,0,0,1-.06,3.007,6.965,6.965,0,0,1-2.605,3.826,7.885,7.885,0,0,1-2.948,1.37,6.926,6.926,0,0,1-5.077-.521,3.723,3.723,0,0,1-1.459-1.221,2.891,2.891,0,0,1-.313-1.221,17.847,17.847,0,0,1-.06-3.767c.4-2.025,1.31-2.233,1.816-4.541a11.147,11.147,0,0,0,.238-1.98,1.935,1.935,0,0,0,2.1-1.057c.536-.849.774-2.367-.06-3.067a1.778,1.778,0,0,0-1.34-.357C667.869,449.329,667.229,448.615,666.574,447.9Z" transform="translate(-645.476 -438.238)" fill="#3f3f3f" opacity="0.2"/>
        <path id="Caminho_11425" data-name="Caminho 11425" d="M653.9,480.3c.759.223,1.533.461,2.293.685-.194.179-.387.342-.6.521s-.372.3-.566.447a3.145,3.145,0,0,1-.849-.968A2.479,2.479,0,0,1,653.9,480.3Z" transform="translate(-639.858 -465.814)" fill="#3f3f3f" opacity="0.13"/>
        <path id="Caminho_11426" data-name="Caminho 11426" d="M561.684,487.778c-1.623,5.732-.417,10.362,2.01,11.374,1.906.789,5.345-.328,5.985-2.278a3.565,3.565,0,0,0-.164-2.069,16.245,16.245,0,0,0-2.278-5.092,3.589,3.589,0,0,1-.849-.744,3.378,3.378,0,0,1-.715-1.653c.432.447,1.057,1.012,1.459.834a1.088,1.088,0,0,0,.491-1.251,18.51,18.51,0,0,0,.729,2.71,11.5,11.5,0,0,0,2.188,4.169,8.774,8.774,0,0,0,3.379,2.322,4.978,4.978,0,0,1,1.027,2.352,5.167,5.167,0,0,1-.134,2.025,5.777,5.777,0,0,1-1.593,2.65,6.294,6.294,0,0,1-3.543,1.623c-4.034.536-7.161-2.992-7.712-3.6a9.013,9.013,0,0,1-1.98-3.275,10.93,10.93,0,0,1,.268-6.551A16.645,16.645,0,0,1,561.684,487.778Z" transform="translate(-559.582 -471.432)" fill="#3f3f3f" opacity="0.16"/>
      </g>
    </g>
  </g>
</svg>
