<svg xmlns="http://www.w3.org/2000/svg" width="150" height="51" viewBox="0 0 150 51">
  <g id="Grupo_63" data-name="Grupo 63" transform="translate(-0.318 0.47)">
    <rect id="Retângulo_9" data-name="Retângulo 9" width="150" height="51" rx="5" transform="translate(0.318 -0.47)" fill="#313131"/>
    <g id="Grupo_20" data-name="Grupo 20" transform="translate(16.047 7.127)">
      <path id="Caminho_30" data-name="Caminho 30" d="M27.844,30.824A21.845,21.845,0,0,0,25.854,32.6a7.041,7.041,0,0,0-1.8,5.5,7.446,7.446,0,0,0,4.385,6.438c.249.124.311.218.218.529a20.081,20.081,0,0,1-4.7,7.651,4.49,4.49,0,0,1-5.007,1.026,26.273,26.273,0,0,0-2.644-.871,6.234,6.234,0,0,0-3.608.28c-.5.156-.964.373-1.431.529a4.382,4.382,0,0,1-5.443-1.275A21.922,21.922,0,0,1,.1,39.937a12.947,12.947,0,0,1,1-7.34,8.613,8.613,0,0,1,6.811-5.1,7.694,7.694,0,0,1,3.826.591c.653.249,1.306.435,1.959.684a2.488,2.488,0,0,0,1.773,0,27.2,27.2,0,0,1,4.292-1.306,7.991,7.991,0,0,1,7.589,2.8C27.533,30.451,27.689,30.638,27.844,30.824Z" transform="translate(0.033 -18.868)" fill="#fff"/>
      <path id="Caminho_31" data-name="Caminho 31" d="M162.9,65.7c.4,0,.778-.031,1.151,0a.489.489,0,0,1,.342.311c.031.342.031.684.031,1.182a2.291,2.291,0,0,0,.311-.342,3.81,3.81,0,0,1,6.1.311,5.969,5.969,0,0,1-.218,6.407c-1.431,1.9-4.541,1.991-5.816.311-.031-.031-.062-.031-.155-.093v4.821h-1.711C162.9,74.313,162.9,70.052,162.9,65.7Zm4.23,7.993a2.394,2.394,0,0,0,2.395-1.586,4.674,4.674,0,0,0,.218-3.048,2.571,2.571,0,0,0-5.1.156,9.755,9.755,0,0,0,0,2.333A2.432,2.432,0,0,0,167.13,73.691Z" transform="translate(-112.225 -45.126)" fill="#fff"/>
      <path id="Caminho_32" data-name="Caminho 32" d="M198.724,65.78c.031.529.093.933.124,1.4.062-.031.124-.031.124-.062a3.664,3.664,0,0,1,3.888-1.431,3.592,3.592,0,0,1,2.861,2.768,5.571,5.571,0,0,1-1.12,5.629,3.839,3.839,0,0,1-5.443-.031,1.455,1.455,0,0,0-.187-.156v4.79h-1.648c0-.124-.031-.249-.031-.373,0-1.9-.031-3.794-.031-5.692,0-2.115-.031-4.2-.062-6.314,0-.4.093-.56.5-.5C198.071,65.812,198.382,65.78,198.724,65.78Zm5.6,4.572c-.062-.4-.093-.84-.187-1.244a2.612,2.612,0,0,0-2.768-2.146,2.669,2.669,0,0,0-2.333,2.519,15.073,15.073,0,0,0,0,2.053,2.38,2.38,0,0,0,1.8,2.115,2.48,2.48,0,0,0,2.737-.933A4.107,4.107,0,0,0,204.322,70.352Z" transform="translate(-135.857 -45.208)" fill="#fff"/>
      <path id="Caminho_33" data-name="Caminho 33" d="M133.737,67.283a12.714,12.714,0,0,1-1.555-.031c-.124,0-.311-.218-.342-.342-.373-1.057-.746-2.146-1.089-3.235a.447.447,0,0,0-.5-.373c-1.244.031-2.488.031-3.7,0a.483.483,0,0,0-.529.4c-.342,1.057-.715,2.115-1.057,3.2a.447.447,0,0,1-.5.373c-.435-.031-.871,0-1.368,0q.373-1.166.746-2.239c1.151-3.39,2.3-6.749,3.452-10.139a.483.483,0,0,1,.529-.4c.5.031,1.151-.156,1.493.062s.435.871.591,1.337c1.244,3.608,2.488,7.247,3.7,10.854A2.205,2.205,0,0,1,133.737,67.283ZM126.521,61.9h3.67c-.622-1.9-1.244-3.732-1.866-5.6C127.734,58.17,127.143,60.005,126.521,61.9Z" transform="translate(-84.804 -37.536)" fill="#fff"/>
      <path id="Caminho_34" data-name="Caminho 34" d="M250.334,54.655c-.156.435-.28.84-.435,1.306-.435-.124-.84-.249-1.244-.373a3.622,3.622,0,0,0-2.364.031,1.773,1.773,0,0,0-.56,3.11,12.358,12.358,0,0,0,1.679.933c.529.249,1.057.467,1.555.746a3.359,3.359,0,0,1,1.835,3.608,3.312,3.312,0,0,1-2.519,2.861,6.647,6.647,0,0,1-4.883-.342c-.28-.124-.4-.28-.249-.591.124-.28.187-.622.28-.9,0-.031.031-.062,0,0,.9.218,1.773.529,2.644.653a3.79,3.79,0,0,0,1.773-.249,1.991,1.991,0,0,0,.5-3.421,12.283,12.283,0,0,0-1.9-1.026c-.529-.28-1.089-.5-1.586-.809a3.061,3.061,0,0,1-1.555-2.955,3.223,3.223,0,0,1,2.333-2.955,6.1,6.1,0,0,1,4.323.156A1.47,1.47,0,0,1,250.334,54.655Z" transform="translate(-167.469 -37.193)" fill="#fff"/>
      <path id="Caminho_35" data-name="Caminho 35" d="M301.308,70.134a4.523,4.523,0,0,1-4.416,4.914,4.208,4.208,0,0,1-4.572-3.857,5.037,5.037,0,0,1,1.089-4.23,4.4,4.4,0,0,1,4.727-1.306,4.059,4.059,0,0,1,3.017,3.39C301.246,69.481,301.277,69.885,301.308,70.134Zm-7.4.156a12.536,12.536,0,0,0,.529,1.928,2.489,2.489,0,0,0,4.416.373,4.382,4.382,0,0,0,.031-4.6,2.52,2.52,0,0,0-4.323.062A6.676,6.676,0,0,0,293.906,70.289Z" transform="translate(-201.337 -45.114)" fill="#fff"/>
      <path id="Caminho_36" data-name="Caminho 36" d="M352.217,73.322c.093.342.187.715.311,1.182-.56.156-1.12.311-1.679.435a5.886,5.886,0,0,1-3.577-.342,4.091,4.091,0,0,1-2.364-3.608,5.49,5.49,0,0,1,.871-3.732,4.085,4.085,0,0,1,5.225-1.4,3.8,3.8,0,0,1,1.959,3.172c.062.373,0,.746.031,1.089s-.124.435-.467.435h-5.412c-.622,0-.622,0-.529.591a2.913,2.913,0,0,0,3.546,2.488A13.008,13.008,0,0,0,352.217,73.322Zm-5.6-4.043h4.7a2.362,2.362,0,0,0-2.177-2.613A2.677,2.677,0,0,0,346.619,69.279Z" transform="translate(-237.597 -45.099)" fill="#fff"/>
      <path id="Caminho_37" data-name="Caminho 37" d="M45.871,7.409a7.647,7.647,0,0,1,4.6-6.656A11.461,11.461,0,0,1,52.465.1c.5-.124.622,0,.622.5A7.937,7.937,0,0,1,48.795,7.72a5.092,5.092,0,0,1-2.364.56c-.467,0-.622-.156-.56-.56Z" transform="translate(-31.585 -0.056)" fill="#fff"/>
      <path id="Caminho_38" data-name="Caminho 38" d="M272.8,61.719h-1.431c0-.373-.031-.746,0-1.089,0-.093.187-.218.311-.218.342-.062.84.062,1-.124.187-.249.093-.715.093-1.057,0-1,0-1,1-1.244.187-.062.4-.093.653-.187v2.581h2.333v1.337h-2.333v3.732a16.339,16.339,0,0,0,.093,1.742c.093.9.435,1.182,1.368,1.151.249,0,.467-.031.715-.031a.525.525,0,0,1,.062.156c.093,1.244.373,1.12-1,1.306a2.341,2.341,0,0,1-2.861-2.488c-.031-1.648,0-3.3,0-4.976Z" transform="translate(-186.949 -39.841)" fill="#fff"/>
      <path id="Caminho_39" data-name="Caminho 39" d="M118.469,22.712V15.559a2.032,2.032,0,0,1,0-.435.513.513,0,0,1,.249-.311,8.373,8.373,0,0,1,3.826.093A3.309,3.309,0,0,1,125,18.2a6.827,6.827,0,0,1-.124,1.586,3.531,3.531,0,0,1-2.519,2.768A9.583,9.583,0,0,1,118.469,22.712Zm1.089-.871c1.9.4,4.23-.156,4.354-2.986a2.8,2.8,0,0,0-1.648-3.048,5.078,5.078,0,0,0-2.457-.218c-.093,0-.249.218-.249.311C119.558,17.891,119.558,19.851,119.558,21.841Z" transform="translate(-81.604 -10.102)" fill="#fff"/>
      <path id="Caminho_40" data-name="Caminho 40" d="M168.866,22.273c-.591,1.866-1.182,3.639-1.742,5.412-.124.435-.467.218-.715.28-.249.031-.4,0-.5-.311-.342-1.182-.746-2.364-1.12-3.514-.031-.124-.093-.249-.124-.4-.4,1.244-.84,2.395-1.213,3.608-.156.5-.342.715-.871.622a1.476,1.476,0,0,0-.373,0c-.56-1.9-1.151-3.763-1.711-5.629.062-.031.062-.031.093-.031,1-.093,1-.093,1.244.84.28,1.12.591,2.27.871,3.39,0,.031.031.062.093.156.249-.778.5-1.493.715-2.239.187-.56.342-1.089.5-1.648.156-.529.4-.684.933-.529a.512.512,0,0,1,.28.373c.373,1.151.715,2.3,1.057,3.452a3.866,3.866,0,0,0,.187.56,3.869,3.869,0,0,0,.187-.56c.311-1.089.622-2.177.9-3.3.093-.4.28-.591.715-.529Z" transform="translate(-110.572 -15.323)" fill="#fff"/>
      <path id="Caminho_41" data-name="Caminho 41" d="M329.579,74.968H327.9V65.856h1.4c.031.529.031,1.026.062,1.555a3.015,3.015,0,0,1,3.017-1.742v1.617a2.387,2.387,0,0,0-2.768,2.581c-.031,1.493-.031,3.017-.031,4.51Z" transform="translate(-225.908 -45.253)" fill="#fff"/>
      <path id="Caminho_42" data-name="Caminho 42" d="M259.348,22.066h-.9c-.031-.249-.031-.5-.062-.809a2.249,2.249,0,0,1-2.333.933A2.533,2.533,0,0,1,254,19.827a3.675,3.675,0,0,1,.435-2.426,2.406,2.406,0,0,1,3.639-.622c.031.031.062.031.156.093V13.7h1.057C259.348,16.5,259.348,19.267,259.348,22.066ZM258.322,19.2h-.031a5.024,5.024,0,0,0,0-.684,1.5,1.5,0,0,0-1.306-1.4,1.453,1.453,0,0,0-1.617.9,2.734,2.734,0,0,0,.031,2.457,1.421,1.421,0,0,0,1.586.809,1.483,1.483,0,0,0,1.275-1.213C258.291,19.827,258.291,19.516,258.322,19.2Z" transform="translate(-174.959 -9.456)" fill="#fff"/>
      <path id="Caminho_43" data-name="Caminho 43" d="M346.557,22.135H345.5V13.8h1.026v3.3a6.178,6.178,0,0,1,1.244-.684,2.021,2.021,0,0,1,2.613,2.146c.031,1.089,0,2.146,0,3.235,0,.373-.187.435-.467.4s-.653.124-.653-.4V19.274a6.5,6.5,0,0,0-.031-.778,1.286,1.286,0,0,0-1.275-1.306,1.441,1.441,0,0,0-1.431,1.4c-.031,1,0,1.959,0,2.955A3.568,3.568,0,0,1,346.557,22.135Z" transform="translate(-238.034 -9.525)" fill="#fff"/>
      <path id="Caminho_44" data-name="Caminho 44" d="M216.5,24.769a2.859,2.859,0,0,1,3.857-2.861,2.754,2.754,0,0,1,1.8,2.737,2.849,2.849,0,0,1-3.888,2.924A2.721,2.721,0,0,1,216.5,24.769Zm1.057.031a5.3,5.3,0,0,0,.4,1.244,1.514,1.514,0,0,0,2.644.187,2.774,2.774,0,0,0-.031-3.079,1.41,1.41,0,0,0-1.493-.56C218.179,22.778,217.651,23.587,217.557,24.8Z" transform="translate(-149.155 -14.989)" fill="#fff"/>
      <path id="Caminho_45" data-name="Caminho 45" d="M283.5,24.955a2.808,2.808,0,0,1,3.483-3.017,2.713,2.713,0,0,1,2.146,3.079,2.718,2.718,0,0,1-1.835,2.675A2.765,2.765,0,0,1,283.5,24.955Zm4.541-.311a7.9,7.9,0,0,0-.373-1.151,1.531,1.531,0,0,0-2.581-.187,2.713,2.713,0,0,0,0,3.11,1.474,1.474,0,0,0,2.27.187A2.6,2.6,0,0,0,288.041,24.644Z" transform="translate(-195.317 -15.082)" fill="#fff"/>
      <path id="Caminho_46" data-name="Caminho 46" d="M141.7,24.833a2.845,2.845,0,1,1,5.661.156,2.885,2.885,0,0,1-1.773,2.644A2.806,2.806,0,0,1,141.7,24.833Zm4.665.093a7.216,7.216,0,0,0-.529-1.524,1.542,1.542,0,0,0-2.613-.062,2.736,2.736,0,0,0,.031,2.986,1.506,1.506,0,0,0,2.395.124A7.529,7.529,0,0,0,146.362,24.926Z" transform="translate(-97.616 -15.022)" fill="#fff"/>
      <path id="Caminho_47" data-name="Caminho 47" d="M368.832,26.647c.062.249.124.467.187.715a3.855,3.855,0,0,1-3.546-.062,2.781,2.781,0,0,1-1.213-2.861,4.118,4.118,0,0,1,.249-1.026A2.554,2.554,0,0,1,367.65,21.8a2.482,2.482,0,0,1,1.68,2.706,2.9,2.9,0,0,1-.062.435H365.38C365.193,26.523,366.406,27.113,368.832,26.647Zm-.591-2.55A1.326,1.326,0,0,0,367,22.542,1.534,1.534,0,0,0,365.38,24.1Z" transform="translate(-250.947 -14.97)" fill="#fff"/>
      <path id="Caminho_48" data-name="Caminho 48" d="M239.85,24c.187-1.275-.778-1.617-2.706-.964-.093-.218-.156-.4-.218-.591a2.853,2.853,0,0,1,3.359-.124,3.6,3.6,0,0,1,.684,1.275,1.514,1.514,0,0,1,.062.653v3.39h-.871c-.031-.156-.093-.342-.156-.56a2.259,2.259,0,0,1-2.115.715,1.693,1.693,0,0,1-1.026-2.737,2.643,2.643,0,0,1,1.835-.933C239.072,24.058,239.477,24.027,239.85,24Zm.062.809a2.992,2.992,0,0,0-1.866.373,1.053,1.053,0,0,0-.467,1.089.934.934,0,0,0,.684.746,1.408,1.408,0,0,0,1.648-1.089C239.943,25.551,239.912,25.209,239.912,24.8Z" transform="translate(-162.925 -15.056)" fill="#fff"/>
      <path id="Caminho_49" data-name="Caminho 49" d="M190.864,22.746a2.33,2.33,0,0,1,2.146-.9,1.941,1.941,0,0,1,1.742,1.959c.093,1.275.031,2.55.031,3.888h-1.089V24.239c-.031-.9-.529-1.462-1.275-1.462a1.5,1.5,0,0,0-1.462,1.555v3.359H189.9V22.062h.871A3.212,3.212,0,0,0,190.864,22.746Z" transform="translate(-130.828 -15.05)" fill="#fff"/>
      <path id="Caminho_50" data-name="Caminho 50" d="M305.957,27.745H304.9v-5.66h.871c.031.249.062.467.093.684.062.031.093.093.156.124.031-.093.031-.218.093-.28a2.174,2.174,0,0,1,2.364-.591,1.839,1.839,0,0,1,1.275,1.866c.062,1.275.031,2.519.031,3.826h-1.057v-2.55a7.179,7.179,0,0,0-.093-1.151,1.224,1.224,0,0,0-1.151-1.213,1.393,1.393,0,0,0-1.462,1.12,7.061,7.061,0,0,0-.093,1.4C305.957,26.1,305.957,26.875,305.957,27.745Z" transform="translate(-210.061 -15.104)" fill="#fff"/>
      <path id="Caminho_51" data-name="Caminho 51" d="M335.166,23.525c.187.778.155.809-.529.9a1.446,1.446,0,0,1-1.835-1.337,22.342,22.342,0,0,1-.062-2.488V19.419c-.311-.031-.56-.031-.84-.062v-.778a8.229,8.229,0,0,0,.84-.062,8.129,8.129,0,0,0,0-.871c-.062-.373.124-.56.466-.622a5.053,5.053,0,0,0,.591-.124v1.617h1.493v.84c-.373,0-.746-.031-1.089,0-.124.031-.373.187-.373.28-.031,1-.031,1.991.031,2.986.062.715.249.84.964.84A.67.67,0,0,0,335.166,23.525Z" transform="translate(-228.663 -11.661)" fill="#fff"/>
      <path id="Caminho_52" data-name="Caminho 52" d="M210.826,22.135H209.8V13.8h1.026Z" transform="translate(-144.539 -9.525)" fill="#fff"/>
    </g>
  </g>
</svg>
