<svg xmlns="http://www.w3.org/2000/svg" xmlns:xlink="http://www.w3.org/1999/xlink" width="16" height="16" viewBox="0 0 16 16">
  <defs>
    <clipPath id="clip-path">
      <rect id="Ret칙ngulo_227" data-name="Ret칙ngulo 227" width="16" height="16" fill="#9f9ed2" stroke="#d5dae0" stroke-width="1"/>
    </clipPath>
  </defs>
  <g id="Grupo_de_m치scara_13" data-name="Grupo de m치scara 13" clip-path="url(#clip-path)">
    <g id="speech-bubbles-comment-option" transform="translate(-0.22 1.714)">
      <g id="Grupo_1211" data-name="Grupo 1211">
        <path id="Caminho_1757" data-name="Caminho 1757" d="M9.442,11.1a5.67,5.67,0,0,0,2.29-1.665,3.556,3.556,0,0,0,0-4.589,5.67,5.67,0,0,0-2.29-1.665,8.042,8.042,0,0,0-3.156-.612,8.045,8.045,0,0,0-3.156.612A5.67,5.67,0,0,0,.839,4.848,3.606,3.606,0,0,0,0,7.142a3.508,3.508,0,0,0,.634,2,5.217,5.217,0,0,0,1.741,1.58q-.089.214-.183.393a2.263,2.263,0,0,1-.223.344l-.2.259q-.071.094-.232.263t-.205.223c0-.006-.012.008-.036.04s-.037.048-.04.045-.015.012-.036.044l-.031.049-.022.045a.191.191,0,0,0-.018.054.349.349,0,0,0,0,.058.18.18,0,0,0,.009.058.3.3,0,0,0,.1.188.279.279,0,0,0,.183.071h.027a7.486,7.486,0,0,0,.768-.143A7.508,7.508,0,0,0,4.714,11.57a8.966,8.966,0,0,0,1.571.143A8.034,8.034,0,0,0,9.442,11.1Z" transform="translate(0 -2.571)" fill="#5d5ab9"/>
        <path id="Caminho_1758" data-name="Caminho 1758" d="M18.116,13.039a3.485,3.485,0,0,0-.036-4.058,5.293,5.293,0,0,0-1.821-1.589,4.595,4.595,0,0,1-.393,3.625,5.976,5.976,0,0,1-1.714,1.893,7.906,7.906,0,0,1-2.357,1.152,9.433,9.433,0,0,1-2.759.4q-.268,0-.786-.036a7.5,7.5,0,0,0,4.214,1.179,8.971,8.971,0,0,0,1.571-.143,7.13,7.13,0,0,0,3.25,1.286.269.269,0,0,0,.2-.063.33.33,0,0,0,.116-.2c0-.036,0-.055.009-.058s.007-.022,0-.058l-.018-.054-.022-.045a.428.428,0,0,0-.031-.049.384.384,0,0,0-.036-.045l-.04-.045-.036-.04q-.045-.054-.205-.223t-.232-.263q-.071-.094-.2-.259a2.258,2.258,0,0,1-.223-.344q-.094-.179-.183-.393A5.239,5.239,0,0,0,18.116,13.039Z" transform="translate(-2.75 -4.178)" fill="#9f9ed2"/>
      </g>
    </g>
  </g>
</svg>
