<svg xmlns="http://www.w3.org/2000/svg" xmlns:xlink="http://www.w3.org/1999/xlink" width="35" height="35" viewBox="0 0 35 35"><defs><clipPath id="a"><rect width="24" height="24" fill="#fff"/></clipPath></defs><g transform="translate(-219 -537)"><rect width="35" height="35" rx="4" transform="translate(219 537)" fill="#342ead"/><g transform="translate(224.762 542.762)" clip-path="url(#a)"><path d="M20,4H4A2,2,0,0,0,2.01,6L2,18a2.006,2.006,0,0,0,2,2H20a2.006,2.006,0,0,0,2-2V6A2.006,2.006,0,0,0,20,4Zm0,4-8,5L4,8V6l8,5,8-5Z" fill="#fff"/><path d="M0,0H24V24H0Z" fill="none"/></g></g></svg>