<svg xmlns="http://www.w3.org/2000/svg" xmlns:xlink="http://www.w3.org/1999/xlink" width="35" height="35" viewBox="0 0 35 35"><defs><clipPath id="a"><rect width="35" height="35" transform="translate(65 537)" fill="#dcdcdc"/></clipPath></defs><g transform="translate(-65 -537)" clip-path="url(#a)"><g transform="translate(65 537)"><path d="M30.625,0H4.375A4.379,4.379,0,0,0,0,4.375v26.25A4.379,4.379,0,0,0,4.375,35h26.25A4.379,4.379,0,0,0,35,30.625V4.375A4.379,4.379,0,0,0,30.625,0Z" fill="#1976d2"/><path d="M33.281,19.375H27.813V15c0-1.207.98-1.094,2.188-1.094h2.188V8.438H27.813A6.562,6.562,0,0,0,21.25,15v4.375H16.875v5.469H21.25V36.875h6.563V24.844h3.281Z" transform="translate(-3.75 -1.875)" fill="#fafafa"/></g></g></svg>