<svg xmlns="http://www.w3.org/2000/svg" width="150" height="51" viewBox="0 0 150 51">
  <g id="Grupo_64" data-name="Grupo 64" transform="translate(0.104 0.47)">
    <rect id="Retângulo_9" data-name="Retângulo 9" width="150" height="51" rx="5" transform="translate(-0.104 -0.47)" fill="#313131"/>
    <g id="Grupo_23" data-name="Grupo 23" transform="translate(13.549 10.778)">
      <path id="Caminho_53" data-name="Caminho 53" d="M0,14.534V3.1C0,.475,1.348-.271,3.635,1.029L17,8.612c2.287,1.3,4.6,2.576,6.861,3.9,2.191,1.276,2.215,2.889.024,4.141Q13.733,22.466,3.539,28.207C1.324,29.459,0,28.64,0,26.065ZM.987,26.763,13.168,14.654Q7.1,8.552.987,2.329Zm1.107,1.011c.024.072.048.12.072.193,5.224-2.961,10.423-5.9,15.479-8.762-1.18-1.276-2.335-2.479-3.37-3.587C10.231,19.661,6.163,23.73,2.094,27.774ZM17.862,10.056c-5.32-3.009-10.544-5.946-15.912-9C6.211,5.338,10.3,9.43,14.323,13.475,15.431,12.439,16.586,11.284,17.862,10.056Zm1.083,8.4c1.613-.915,3.322-1.854,4.983-2.865.891-.554.963-1.4.1-1.926-1.685-1.083-3.466-2.046-5.079-2.985-1.42,1.4-2.7,2.624-3.924,3.828C16.321,15.81,17.6,17.11,18.945,18.458Z" transform="translate(0 -0.307)" fill="#fff"/>
      <path id="Caminho_54" data-name="Caminho 54" d="M151.592,47.728c-.578.481-1.035.867-1.517,1.252-2.817-1.661-5.079-1.613-6.933.193a5.214,5.214,0,0,0-.915,6.187,5.146,5.146,0,0,0,5.777,2.431,3.815,3.815,0,0,0,3.057-3.587h-4.405V52.229c2,0,4.02-.024,6.066.048.193,0,.506.626.506.987a6,6,0,0,1-3.3,5.946,6.769,6.769,0,0,1-7.39-.554,6.649,6.649,0,0,1-2.985-6.861,7.08,7.08,0,0,1,5.031-5.729C147.187,45.1,149.353,46.019,151.592,47.728Z" transform="translate(-105.878 -34.68)" fill="#fff"/>
      <path id="Caminho_55" data-name="Caminho 55" d="M290.7,67.155c0,3.3.144,6.5-.048,9.677-.12,1.9-1.926,3.25-3.948,3.466-1.372.144-3.37-1.2-4.189-2.865.843-.53,1.541-1.083,2.431.144a2.057,2.057,0,0,0,2.744.385,2.387,2.387,0,0,0,1.131-2.7c-2.792,1.372-5.32.53-6.4-2.07a4.587,4.587,0,0,1,2.72-6.066,2.416,2.416,0,0,1,1.4-.193A10.587,10.587,0,0,0,290.7,67.155Zm-1.661,4.357a2.44,2.44,0,1,0-2.359,2.648A2.517,2.517,0,0,0,289.043,71.512Z" transform="translate(-214.177 -50.786)" fill="#fff"/>
      <path id="Caminho_56" data-name="Caminho 56" d="M391.446,56.67v4.959H389.4V48.437a43.773,43.773,0,0,1,5.9.048,3.951,3.951,0,0,1,3.274,4.261,4.343,4.343,0,0,1-4.309,3.9C393.372,56.694,392.457,56.67,391.446,56.67Zm.024-1.9a28.489,28.489,0,0,0,3.3-.169,2.072,2.072,0,0,0,1.733-2.142,2.139,2.139,0,0,0-1.83-2.191,28.325,28.325,0,0,0-3.2-.024Z" transform="translate(-295.661 -36.713)" fill="#fff"/>
      <path id="Caminho_57" data-name="Caminho 57" d="M452.685,75.647c-.867-.1-1.805.6-2.191-.746a3.321,3.321,0,0,1-3.876.746,2.763,2.763,0,0,1-1.854-2.455,2.375,2.375,0,0,1,1.589-2.672,25.879,25.879,0,0,1,4.092-.65,2.018,2.018,0,0,0-3.009-.915c-1.083.626-1.083.626-2.335-.169.481-1.541,2.479-2.287,4.574-1.9a3.584,3.584,0,0,1,3.009,3.418,7.215,7.215,0,0,1,0,.722C452.685,72.517,452.685,73.986,452.685,75.647Zm-1.974-3.828a14.178,14.178,0,0,0-2.889.048c-.409.1-.7.818-1.011,1.252.457.313.891.818,1.4.915C449.315,74.251,450.157,73.528,450.711,71.819Z" transform="translate(-337.69 -50.708)" fill="#fff"/>
      <path id="Caminho_58" data-name="Caminho 58" d="M240.8,71.6a4.429,4.429,0,0,1,4.5-4.6,4.492,4.492,0,0,1,4.67,4.574,4.586,4.586,0,0,1-9.172.024Zm7.077,0a2.5,2.5,0,0,0-2.5-2.744,2.55,2.55,0,0,0-2.528,2.624,2.6,2.6,0,0,0,2.552,2.744A2.483,2.483,0,0,0,247.877,71.6Z" transform="translate(-182.832 -50.871)" fill="#fff"/>
      <path id="Caminho_59" data-name="Caminho 59" d="M203.774,67a4.54,4.54,0,0,1,4.67,4.6,4.622,4.622,0,1,1-4.67-4.6Zm2.6,4.574a2.532,2.532,0,1,0-5.055-.024,2.64,2.64,0,0,0,2.455,2.72A2.612,2.612,0,0,0,206.374,71.573Z" transform="translate(-151.247 -50.871)" fill="#fff"/>
      <path id="Caminho_60" data-name="Caminho 60" d="M344.545,70.451c-2,.843-3.924,1.661-5.874,2.479,1.035,1.757,2.528,1.781,4.333.144.481.313.963.65,1.468.987a4.439,4.439,0,0,1-5.489,1.781A4.645,4.645,0,0,1,336.167,71a4.319,4.319,0,0,1,3.852-3.972C342.234,66.84,343.726,67.947,344.545,70.451ZM342.21,69.7a1.931,1.931,0,0,0-2.479-.7,2.183,2.183,0,0,0-1.444,2.311C339.61,70.788,340.837,70.282,342.21,69.7Z" transform="translate(-255.211 -50.88)" fill="#fff"/>
      <path id="Caminho_61" data-name="Caminho 61" d="M478,68.05c2.118-.289,2.118-.289,2.816,1.468.53,1.324,1.083,2.648,1.709,4.213.6-1.517,1.131-2.792,1.637-4.068.722-1.805.722-1.805,2.841-1.661a7.256,7.256,0,0,1-.313.867c-1.492,3.442-3.057,6.885-4.453,10.375-.53,1.348-1.3,1.661-2.7,1.228.481-1.083.891-2.215,1.468-3.25a2.36,2.36,0,0,0,0-2.359C479.974,72.624,479.011,70.337,478,68.05Z" transform="translate(-362.933 -51.56)" fill="#fff"/>
      <path id="Caminho_62" data-name="Caminho 62" d="M326.226,61.688H324.3V48.4h1.926Z" transform="translate(-246.232 -36.749)" fill="#fff"/>
      <path id="Caminho_63" data-name="Caminho 63" d="M434.154,61.636H432.3V48.3h1.854Z" transform="translate(-328.234 -36.673)" fill="#fff"/>
      <path id="Caminho_64" data-name="Caminho 64" d="M147.061,3.766a3.187,3.187,0,0,1-2.624,3.707c-1.252.313-2.937-.77-3.659-2.359a3.317,3.317,0,0,1,1.228-3.876c1.468-1.059,2.865-.939,4.165.7a2.4,2.4,0,0,1-.939-.12,2.469,2.469,0,0,0-2.816.241,2.554,2.554,0,0,0-.794,2.72,2.31,2.31,0,0,0,2.335,1.709c1.276,0,1.878-.481,2.239-1.926a12.26,12.26,0,0,1-1.637-.024c-.217-.024-.385-.265-.578-.385.217-.12.385-.337.626-.361a5.434,5.434,0,0,1,1.083-.024Z" transform="translate(-106.715 -0.42)" fill="#fff"/>
      <path id="Caminho_65" data-name="Caminho 65" d="M267.067,3.866a3.566,3.566,0,0,1-3.346,3.563A3.657,3.657,0,0,1,260.4,3.938,3.6,3.6,0,0,1,263.769.4,3.52,3.52,0,0,1,267.067,3.866Zm-.939.048a2.379,2.379,0,0,0-2.407-2.552,2.432,2.432,0,0,0-2.383,2.5,2.364,2.364,0,0,0,2.335,2.5A2.264,2.264,0,0,0,266.128,3.914Z" transform="translate(-197.714 -0.303)" fill="#fff"/>
      <path id="Caminho_66" data-name="Caminho 66" d="M297.234.217c.193.241.554.481.578.722.048,1.926.024,3.828.024,5.753-.1.072-.193.169-.289.241a4.473,4.473,0,0,1-1.107-.843c-.915-1.324-1.733-2.72-2.792-4.381,0,1.661.024,2.961-.024,4.261,0,.289-.265.554-.409.818-.144-.265-.409-.554-.409-.818-.048-1.83-.024-3.683-.024-5.97a6.229,6.229,0,0,1,1.42,1.011c.891,1.276,1.661,2.624,2.672,4.213V.481C296.97.385,297.114.313,297.234.217Z" transform="translate(-222.296)" fill="#fff"/>
      <path id="Caminho_67" data-name="Caminho 67" d="M176.494,4.555c-.578,1.011-1.805.072-2.576.626V6.938c.77,0,1.541-.024,2.263.024.217.024.409.265.6.385-.193.144-.409.385-.6.385-.987.048-2,.024-3.081.024V1.281c1.083,0,2.118-.024,3.154.024.193,0,.361.289.554.457-.193.144-.385.385-.6.385-.722.048-1.444.024-2.239.024V4.1h2.455C176.446,4.266,176.47,4.41,176.494,4.555Z" transform="translate(-131.43 -0.968)" fill="#fff"/>
      <path id="Caminho_68" data-name="Caminho 68" d="M233.748,2.125V7.541c-.12.048-.265.12-.385.169-.169-.289-.481-.578-.481-.891-.048-1.541-.024-3.105-.024-4.718a9.884,9.884,0,0,1-1.276-.072c-.169-.024-.313-.241-.481-.385.144-.169.265-.457.409-.457,1.2-.048,2.407-.048,3.587,0,.169,0,.313.265.481.409-.193.144-.361.385-.578.433A4.99,4.99,0,0,1,233.748,2.125Z" transform="translate(-175.468 -0.873)" fill="#fff"/>
      <path id="Caminho_69" data-name="Caminho 69" d="M194.548,2.21V7.7c-.144.048-.265.12-.409.169-.169-.289-.481-.578-.481-.867-.048-1.541-.024-3.105-.024-4.79a6.99,6.99,0,0,1-1.252-.024c-.169-.024-.313-.241-.481-.385.144-.169.265-.457.409-.457q1.805-.036,3.611,0c.144,0,.265.313.409.457-.169.12-.313.337-.506.361A6.967,6.967,0,0,1,194.548,2.21Z" transform="translate(-145.705 -1.006)" fill="#fff"/>
      <path id="Caminho_70" data-name="Caminho 70" d="M223.977,4.6c0,.891.024,1.757-.024,2.648,0,.217-.241.409-.385.6-.169-.217-.481-.409-.481-.626-.048-1.709-.048-3.442,0-5.152,0-.217.289-.433.457-.674.144.241.385.457.409.7C224.025,2.917,223.977,3.759,223.977,4.6Z" transform="translate(-169.356 -1.063)" fill="#fff"/>
    </g>
  </g>
</svg>
