<svg xmlns="http://www.w3.org/2000/svg" width="20.37" height="20" viewBox="0 0 20.37 20">
  <g id="Google" transform="translate(0 -0.145)">
    <path id="Path" d="M4.36,6.762,3.675,9.391l-2.5.054A10.389,10.389,0,0,1,1.1,0h0L3.328.42,4.3,2.7A6.2,6.2,0,0,0,4.36,6.762Z" transform="translate(0 5.423)" fill="#fbbb00"/>
    <path id="Path-2" data-name="Path" d="M9.634,0a9.538,9.538,0,0,1,.175,1.825,9.548,9.548,0,0,1-.219,2.04,9.736,9.736,0,0,1-3.531,5.58h0L3.2,9.3,2.791,6.84A5.866,5.866,0,0,0,5.363,3.866H0V0H9.634Z" transform="translate(10.561 8.52)" fill="#518ef8"/>
    <path id="Path-3" data-name="Path" d="M14.895,5.768h0A9.714,9.714,0,0,1,8.707,7.993,9.857,9.857,0,0,1,0,2.679L3.2,0a5.884,5.884,0,0,0,5.5,3.9,5.75,5.75,0,0,0,2.968-.821Z" transform="translate(1.09 12.153)" fill="#28b446"/>
    <path id="Path-4" data-name="Path" d="M15.259,2.281,12.02,4.908A5.97,5.97,0,0,0,3.257,7.993L0,5.351H0a10.05,10.05,0,0,1,15.259-3.07Z" transform="translate(1.09 0.145)" fill="#f14336"/>
  </g>
</svg>
