<svg xmlns="http://www.w3.org/2000/svg" xmlns:xlink="http://www.w3.org/1999/xlink" width="16" height="16" viewBox="0 0 16 16">
  <defs>
    <clipPath id="clip-path">
      <rect id="Ret칙ngulo_228" data-name="Ret칙ngulo 228" width="16" height="16" fill="#152544" stroke="#d5dae0" stroke-width="1"/>
    </clipPath>
  </defs>
  <g id="Grupo_de_m치scara_14" data-name="Grupo de m치scara 14" clip-path="url(#clip-path)">
    <g id="team" transform="translate(0 1.214)">
      <g id="Grupo_1213" data-name="Grupo 1213" transform="translate(12.453 7.328)">
        <g id="Grupo_1212" data-name="Grupo 1212">
          <path id="Caminho_1759" data-name="Caminho 1759" d="M19.917,12.812H18.679a3.219,3.219,0,0,1,.2,1.106v4.677a1.379,1.379,0,0,1-.079.462h2.046a1.387,1.387,0,0,0,1.386-1.386V15.122A2.312,2.312,0,0,0,19.917,12.812Z" transform="translate(-18.679 -12.812)" fill="#b2b1da"/>
        </g>
      </g>
      <g id="Grupo_1215" data-name="Grupo 1215" transform="translate(0 7.328)">
        <g id="Grupo_1214" data-name="Grupo 1214">
          <path id="Caminho_1760" data-name="Caminho 1760" d="M3.352,13.918a3.219,3.219,0,0,1,.2-1.106H2.31A2.312,2.312,0,0,0,0,15.122v2.549a1.387,1.387,0,0,0,1.386,1.386H3.432a1.379,1.379,0,0,1-.079-.462Z" transform="translate(0 -12.812)" fill="#b2b1da"/>
        </g>
      </g>
      <g id="Grupo_1217" data-name="Grupo 1217" transform="translate(4.276 6.124)">
        <g id="Grupo_1216" data-name="Grupo 1216">
          <path id="Caminho_1761" data-name="Caminho 1761" d="M11.552,11.007H8.724a2.312,2.312,0,0,0-2.31,2.31v4.677a.462.462,0,0,0,.462.462H13.4a.462.462,0,0,0,.462-.462V13.317A2.312,2.312,0,0,0,11.552,11.007Z" transform="translate(-6.414 -11.007)" fill="#5d5ab9"/>
        </g>
      </g>
      <g id="Grupo_1219" data-name="Grupo 1219" transform="translate(5.222 0)">
        <g id="Grupo_1218" data-name="Grupo 1218">
          <path id="Caminho_1762" data-name="Caminho 1762" d="M10.611,1.821A2.777,2.777,0,1,0,13.389,4.6,2.781,2.781,0,0,0,10.611,1.821Z" transform="translate(-7.833 -1.821)" fill="#5d5ab9"/>
        </g>
      </g>
      <g id="Grupo_1221" data-name="Grupo 1221" transform="translate(1.045 2.589)">
        <g id="Grupo_1220" data-name="Grupo 1220">
          <path id="Caminho_1763" data-name="Caminho 1763" d="M3.645,5.7A2.076,2.076,0,1,0,5.722,7.782,2.08,2.08,0,0,0,3.645,5.7Z" transform="translate(-1.568 -5.704)" fill="#b2b1da"/>
        </g>
      </g>
      <g id="Grupo_1223" data-name="Grupo 1223" transform="translate(10.8 2.589)">
        <g id="Grupo_1222" data-name="Grupo 1222">
          <path id="Caminho_1764" data-name="Caminho 1764" d="M18.278,5.7a2.077,2.077,0,1,0,2.077,2.077A2.08,2.08,0,0,0,18.278,5.7Z" transform="translate(-16.2 -5.704)" fill="#b2b1da"/>
        </g>
      </g>
    </g>
  </g>
</svg>
