<svg xmlns="http://www.w3.org/2000/svg" xmlns:xlink="http://www.w3.org/1999/xlink" width="35" height="35" viewBox="0 0 35 35"><defs><clipPath id="a"><rect width="35" height="35" rx="4" transform="translate(14978 1666)" fill="#fff" stroke="#707070" stroke-width="1"/></clipPath><radialGradient id="b" cx="0.018" cy="0.908" r="1.446" gradientTransform="matrix(0.998, -0.052, 0.044, 0.849, -0.001, 0.008)" gradientUnits="objectBoundingBox"><stop offset="0" stop-color="#fed576"/><stop offset="0.263" stop-color="#f47133"/><stop offset="0.609" stop-color="#bc3081"/><stop offset="1" stop-color="#4c63d2"/></radialGradient></defs><g transform="translate(-14978 -1666)" clip-path="url(#a)"><g transform="translate(14978 1666.004)"><path d="M.983,5.546V35.971h35V.978h-35Z" transform="translate(-0.983 -0.978)" fill="url(#b)"/><g transform="translate(6.911 7.022)"><path d="M16.234,7.686c2.8,0,3.134.007,4.243.059a5.675,5.675,0,0,1,1.951.362A3.467,3.467,0,0,1,24.416,10.1a5.82,5.82,0,0,1,.362,1.951c.052,1.109.059,1.441.059,4.243s-.007,3.134-.059,4.243a5.675,5.675,0,0,1-.362,1.951,3.467,3.467,0,0,1-1.988,1.988,5.82,5.82,0,0,1-1.951.362c-1.109.052-1.441.059-4.243.059s-3.134-.007-4.243-.059a5.675,5.675,0,0,1-1.951-.362,3.467,3.467,0,0,1-1.988-1.988,5.82,5.82,0,0,1-.362-1.951c-.052-1.109-.059-1.441-.059-4.243s.007-3.134.059-4.243A5.675,5.675,0,0,1,8.051,10.1a3.467,3.467,0,0,1,1.988-1.988,5.82,5.82,0,0,1,1.951-.362c1.109-.044,1.441-.059,4.243-.059m0-1.892c-2.853,0-3.208.015-4.332.067a7.792,7.792,0,0,0-2.55.488A5.156,5.156,0,0,0,7.489,7.56,5.1,5.1,0,0,0,6.277,9.423a7.752,7.752,0,0,0-.488,2.55c-.052,1.124-.067,1.478-.067,4.332s.015,3.208.067,4.332a7.792,7.792,0,0,0,.488,2.55,5.156,5.156,0,0,0,1.212,1.863,5.094,5.094,0,0,0,1.863,1.212,7.752,7.752,0,0,0,2.55.488c1.124.052,1.478.067,4.332.067s3.208-.015,4.332-.067a7.792,7.792,0,0,0,2.55-.488,5.156,5.156,0,0,0,1.863-1.212,5.094,5.094,0,0,0,1.212-1.863,7.752,7.752,0,0,0,.488-2.55c.052-1.124.067-1.478.067-4.332s-.015-3.208-.067-4.332a7.792,7.792,0,0,0-.488-2.55A5.156,5.156,0,0,0,24.978,7.56a5.1,5.1,0,0,0-1.863-1.212,7.752,7.752,0,0,0-2.55-.488c-1.124-.052-1.478-.067-4.332-.067Z" transform="translate(-5.722 -5.793)" fill="#fff"/><path d="M14.624,9.3a5.389,5.389,0,1,0,5.389,5.389A5.39,5.39,0,0,0,14.624,9.3Zm0,8.892a3.5,3.5,0,1,1,3.5-3.5A3.494,3.494,0,0,1,14.624,18.188Z" transform="translate(-4.113 -4.188)" fill="#fff"/><circle cx="1.257" cy="1.257" r="1.257" transform="translate(14.865 3.644)" fill="#fff"/></g></g></g></svg>