<svg xmlns="http://www.w3.org/2000/svg" xmlns:xlink="http://www.w3.org/1999/xlink" width="18" height="18" viewBox="0 0 18 18">
  <defs>
    <clipPath id="clip-path">
      <rect id="Ret칙ngulo_221" data-name="Ret칙ngulo 221" width="18" height="18" fill="#dfdfdf"/>
    </clipPath>
  </defs>
  <g id="Grupo_de_m치scara_9" data-name="Grupo de m치scara 9" clip-path="url(#clip-path)">
    <g id="pin_1_" data-name="pin (1)" transform="translate(2.79)">
      <g id="Grupo_264" data-name="Grupo 264" transform="translate(4.219 4.219)">
        <g id="Grupo_263" data-name="Grupo 263">
          <path id="Caminho_1751" data-name="Caminho 1751" d="M11.3,5.625a2.109,2.109,0,1,0,2.109,2.109A2.111,2.111,0,0,0,11.3,5.625Z" transform="translate(-9.188 -5.625)" fill="#3531a8"/>
        </g>
      </g>
      <g id="Grupo_266" data-name="Grupo 266" transform="translate(0)">
        <g id="Grupo_265" data-name="Grupo 265">
          <path id="Caminho_1752" data-name="Caminho 1752" d="M9.891,0A6.33,6.33,0,0,0,4.506,9.655l5.024,8.1a.528.528,0,0,0,.9-.007l4.9-8.173A6.33,6.33,0,0,0,9.891,0Zm0,9.5a3.171,3.171,0,1,1,3.171-3.171A3.173,3.173,0,0,1,9.891,9.5Z" transform="translate(-3.562)" fill="#9f9ed2"/>
        </g>
      </g>
    </g>
  </g>
</svg>
