<svg xmlns="http://www.w3.org/2000/svg" xmlns:xlink="http://www.w3.org/1999/xlink" width="35" height="35" viewBox="0 0 35 35"><defs><clipPath id="a"><rect width="24" height="24" rx="4" fill="#fff"/></clipPath></defs><g transform="translate(-304 -538)"><rect width="35" height="35" rx="4" transform="translate(304 538)" fill="#2196f3"/><g transform="translate(309.762 543.762)" clip-path="url(#a)"><path d="M0,11.111a10.8,10.8,0,0,0,4.471,8.652V24l4.086-2.242A12.919,12.919,0,0,0,12,22.223c6.627,0,12-4.974,12-11.111S18.627,0,12,0,0,4.974,0,11.111ZM10.734,8l3.13,3.259L19.751,8l-6.56,6.962L10.136,11.7,4.173,14.962Z" transform="translate(0.001)" fill="#fff"/></g></g></svg>