<svg xmlns="http://www.w3.org/2000/svg" xmlns:xlink="http://www.w3.org/1999/xlink" width="35" height="35" viewBox="0 0 35 35"><defs><clipPath id="a"><rect width="35" height="35" rx="4" transform="translate(142 537)" fill="#dcdcdc"/></clipPath></defs><g transform="translate(-142 -537)" clip-path="url(#a)"><g transform="translate(142 537)"><rect width="35" height="35" fill="#50abf1"/><path d="M5.961,28.052A15.068,15.068,0,0,0,29.082,15.318q0-.312-.012-.62a11.84,11.84,0,0,0,2.619-2.688,12.221,12.221,0,0,1-2.991.776h-.009l.008-.005c.136-.091,2.042-1.388,2.3-2.934a18.354,18.354,0,0,1-2.566,1.07c-.248.082-.507.163-.775.238a5.287,5.287,0,0,0-9.009,4.809A15.92,15.92,0,0,1,7.8,10.48s-2.527,3.45,1.506,7A5.432,5.432,0,0,1,7.018,16.8,5.024,5.024,0,0,0,11.2,22.043a4.837,4.837,0,0,1-2.332.1,5.211,5.211,0,0,0,4.859,3.692A10.154,10.154,0,0,1,5.96,28.052Z" transform="translate(-1.324 -2.107)" fill="#fff"/></g></g></svg>