<svg xmlns="http://www.w3.org/2000/svg" xmlns:xlink="http://www.w3.org/1999/xlink" width="35" height="35" viewBox="0 0 35 35"><defs><clipPath id="a"><rect width="35" height="35" rx="4" transform="translate(373 537)" fill="#dcdcdc"/></clipPath></defs><g transform="translate(-373 -537)" clip-path="url(#a)"><g transform="translate(373 537)"><rect width="35" height="35" fill="#1bd741"/><g transform="translate(5.26 5.247)"><path d="M6.763,31.252l1.714-6.089a12.219,12.219,0,1,1,4.565,4.473Zm6.6-3.84.374.228a10.148,10.148,0,1,0-3.267-3.193l.252.392-.987,3.507Z" transform="translate(-6.763 -6.746)" fill="#fff"/><path d="M17.321,15.135l-.793-.043a.959.959,0,0,0-.682.233,3.614,3.614,0,0,0-1.188,1.821,5.519,5.519,0,0,0,1.28,4.326,12.871,12.871,0,0,0,6.938,5.043,3.381,3.381,0,0,0,2.863-.354,2.561,2.561,0,0,0,1.114-1.626l.127-.592a.411.411,0,0,0-.23-.459l-2.681-1.236a.411.411,0,0,0-.5.122l-1.052,1.364a.3.3,0,0,1-.338.1,8.241,8.241,0,0,1-4.459-3.816.3.3,0,0,1,.038-.339l1.006-1.164a.411.411,0,0,0,.067-.43l-1.156-2.7A.411.411,0,0,0,17.321,15.135Z" transform="translate(-8.499 -8.6)" fill="#fff"/></g></g></g></svg>